<svg width="6836" height="1951" viewBox="0 0 6836 1951" fill="none" xmlns="http://www.w3.org/2000/svg">
<g clip-path="url(#clip0_1883_1051)">
<rect width="6836" height="1951" fill="white"/>
<rect x="77.2909" y="984.139" width="547.241" height="547.241" fill="#FFE5F9"/>
<rect x="77.2909" y="984.139" width="547.241" height="547.241" stroke="#EEEEEE" stroke-width="5.41823"/>
<path d="M104.382 1011.23V1504.29H597.441V1011.23H104.382ZM317.951 1113.26L268.735 1086.74H515.264L564.481 1113.26H317.951Z" stroke="#E8FE56" stroke-width="5.41823" stroke-linejoin="round"/>
<path d="M104.382 1011.23L268.735 1086.74L317.951 1113.26L104.382 1504.29V1011.23Z" stroke="#E8FE56" stroke-width="5.41823" stroke-linejoin="round"/>
<path d="M597.442 1011.23V1504.29L564.481 1113.26L515.265 1086.74L597.442 1011.23Z" stroke="#E8FE56" stroke-width="5.41823" stroke-linejoin="round"/>
<rect x="1641.29" y="1331.29" width="547.241" height="547.241" fill="white"/>
<rect x="1641.29" y="1331.29" width="547.241" height="547.241" stroke="#EEEEEE" stroke-width="5.41823"/>
<path d="M1668.38 1358.38V1851.44H2161.44V1358.38H1668.38ZM1732.19 1727.22V1604.91H2123.32L1977.47 1727.22H1732.19Z" stroke="#90DCFF" stroke-width="5.41823" stroke-linejoin="round"/>
<path d="M1668.38 1358.38L1732.19 1604.91V1727.22L1668.38 1851.44V1358.38Z" stroke="#90DCFF" stroke-width="5.41823" stroke-linejoin="round"/>
<path d="M2161.44 1358.38V1851.44L1977.47 1727.22L2123.32 1604.91L2161.44 1358.38Z" stroke="#90DCFF" stroke-width="5.41823" stroke-linejoin="round"/>
<rect x="1418.61" y="-104.559" width="547.241" height="547.241" fill="white"/>
<rect x="1418.61" y="-104.559" width="547.241" height="547.241" stroke="#EEEEEE" stroke-width="5.41823"/>
<path d="M1445.7 -77.4688V415.59H1938.76V-77.4688H1445.7ZM1504.95 169.061L1644.05 104.115H1890.58L1751.48 169.061H1504.95Z" stroke="#86B400" stroke-width="5.41823" stroke-linejoin="round"/>
<path d="M1445.7 -77.4688L1644.05 104.115L1504.95 169.061L1445.7 415.59V-77.4688Z" stroke="#86B400" stroke-width="5.41823" stroke-linejoin="round"/>
<path d="M1938.76 -77.4688V415.59L1751.48 169.061L1890.58 104.115L1938.76 -77.4688Z" stroke="#86B400" stroke-width="5.41823" stroke-linejoin="round"/>
<rect x="408.355" y="314.829" width="1373.52" height="1373.52" fill="#EEEEEE"/>
<rect x="408.355" y="314.829" width="1373.52" height="1373.52" stroke="#DADADA" stroke-width="2.70912"/>
<rect width="1354.56" height="1354.56" transform="translate(417.836 324.311)" fill="white"/>
<path d="M1258.04 803.73H906.638V1202.09H1258.04V803.73Z" stroke="#010F22" stroke-width="13.5456" stroke-linecap="round" stroke-linejoin="round"/>
<path d="M1442.91 564.875H662.32V1440.95H1442.91V564.875Z" stroke="#90DCFF" stroke-width="13.5456" stroke-linecap="round" stroke-linejoin="round"/>
<path d="M1526.55 390.799L539.616 515.576L539.617 1503.74L1526.55 1615.02V390.799Z" stroke="#010F22" stroke-width="13.5456" stroke-linecap="round" stroke-linejoin="round"/>
<path d="M1302.57 732.509L799.79 688.053V1326.88L1302.57 1273.31V732.509Z" stroke="#90DCFF" stroke-width="13.5456" stroke-linecap="round" stroke-linejoin="round"/>
<path d="M1526.55 390.799L1649.94 564.874V1440.95L1526.55 1615.02" stroke="#010F22" stroke-width="13.5456" stroke-linecap="round" stroke-linejoin="round"/>
<path d="M799.79 1326.88L862.105 1273.31H1302.57V732.509H862.105L799.79 688.053V1326.88Z" stroke="#90DCFF" stroke-width="13.5456" stroke-linecap="round" stroke-linejoin="round"/>
<path d="M799.79 1326.88L862.105 1273.31L906.637 1202.09L1302.57 1273.31L1258.03 1202.09V803.73L1302.57 732.509L906.637 803.73L862.105 732.509L799.79 688.053V1326.88Z" stroke="#FE01AC" stroke-width="13.5456" stroke-linecap="round" stroke-linejoin="round"/>
<path d="M662.32 564.875V1440.95" stroke="#010F22" stroke-width="13.5456" stroke-linecap="round" stroke-linejoin="round"/>
<path d="M539.617 1503.74L662.317 1440.95L1526.55 1615.02L1442.91 1440.95V564.874L1526.55 390.799L662.317 564.874L539.616 515.576L539.617 1503.74Z" stroke="#90DCFF" stroke-width="13.5456" stroke-linecap="round" stroke-linejoin="round"/>
<path d="M1030.01 1002.86C1063.07 1002.86 1089.88 976.058 1089.88 942.994C1089.88 909.931 1063.07 883.127 1030.01 883.127C996.947 883.127 970.144 909.931 970.144 942.994C970.144 976.058 996.947 1002.86 1030.01 1002.86Z" stroke="#010F22" stroke-width="13.5456" stroke-linecap="round" stroke-linejoin="round"/>
<rect x="408.955" y="263.11" width="329.31" height="51.9638" fill="#EEEEEE"/>
<rect x="408.955" y="263.11" width="329.31" height="51.9638" stroke="#DADADA" stroke-width="2.70912"/>
<circle cx="426.564" cy="289.092" r="8.12735" fill="#DADADA"/>
<path d="M475.341 295.148H477.189C477.874 295.148 478.381 295.655 478.381 296.37C478.381 297.085 477.874 297.592 477.189 297.592H465.12C464.434 297.592 463.928 297.085 463.928 296.37C463.928 295.655 464.434 295.148 465.12 295.148H470.633C471.289 295.148 471.676 294.761 471.676 294.105V280.039C471.676 279.384 471.289 278.996 470.633 278.996H469.113C468.457 278.996 468.07 279.384 468.07 280.039V282.274C468.07 283.049 467.563 283.586 466.789 283.586C466.014 283.586 465.477 283.049 465.477 282.274V277.775C465.477 277.119 465.865 276.732 466.52 276.732H473.047C473.822 276.732 474.298 277.208 474.298 277.983V294.105C474.298 294.761 474.686 295.148 475.341 295.148ZM485.403 286.059H495.357C496.042 286.059 496.549 286.566 496.549 287.251C496.549 287.937 496.042 288.443 495.357 288.443H485.403C484.718 288.443 484.211 287.937 484.211 287.251C484.211 286.566 484.718 286.059 485.403 286.059ZM505.091 288.443V293.718C505.091 294.373 505.478 294.82 506.104 294.94C509.412 295.446 512.571 295.357 515.819 294.761C516.475 294.612 517.011 294.999 517.1 295.655C517.19 296.34 516.773 296.906 516.147 297.055C512.094 297.83 507.594 297.771 503.571 296.877C502.945 296.728 502.558 296.251 502.558 295.595V287.758C502.558 287.102 502.826 286.446 503.273 285.97C505.687 283.675 509.71 282.036 514.031 281.231C514.716 281.112 515.253 281.5 515.372 282.185C515.461 282.87 515.044 283.437 514.389 283.556C511.14 284.211 508.071 285.314 505.925 286.774C505.389 287.162 505.091 287.788 505.091 288.443ZM530.798 295.327H534.463C535.119 295.327 535.596 295.804 535.596 296.459C535.596 297.115 535.119 297.592 534.463 297.592H522.514C521.858 297.592 521.381 297.115 521.381 296.459C521.381 295.804 521.858 295.327 522.514 295.327H526.179C526.835 295.327 527.222 294.94 527.222 294.284V280.039C527.222 279.384 526.835 278.996 526.179 278.996H522.514C521.858 278.996 521.381 278.52 521.381 277.864C521.381 277.208 521.858 276.732 522.514 276.732H528.712C529.368 276.732 529.755 277.119 529.755 277.775V294.284C529.755 294.94 530.142 295.327 530.798 295.327ZM545.36 275.778C545.419 275.212 545.777 274.854 546.343 274.795C547.178 274.735 547.953 274.735 548.817 274.795C549.353 274.854 549.741 275.212 549.8 275.778C549.86 276.612 549.86 277.387 549.8 278.251C549.741 278.788 549.353 279.175 548.817 279.205C547.953 279.294 547.178 279.294 546.343 279.205C545.777 279.175 545.419 278.788 545.36 278.251C545.3 277.387 545.3 276.612 545.36 275.778ZM549.86 295.327H553.525C554.181 295.327 554.658 295.804 554.658 296.459C554.658 297.115 554.181 297.592 553.525 297.592H541.575C540.92 297.592 540.443 297.115 540.443 296.459C540.443 295.804 540.92 295.327 541.575 295.327H545.241C545.896 295.327 546.284 294.94 546.284 294.284V285.403C546.284 284.748 545.896 284.36 545.241 284.36H541.575C540.92 284.36 540.443 283.884 540.443 283.228C540.443 282.572 540.92 282.096 541.575 282.096H553.525C554.181 282.096 554.658 282.572 554.658 283.228C554.658 283.884 554.181 284.36 553.525 284.36H549.86C549.204 284.36 548.817 284.748 548.817 285.403V294.284C548.817 294.94 549.204 295.327 549.86 295.327ZM562.276 288.443V293.718C562.276 294.373 562.663 294.82 563.289 294.94C566.597 295.446 569.756 295.357 573.004 294.761C573.66 294.612 574.196 294.999 574.285 295.655C574.375 296.34 573.958 296.906 573.332 297.055C569.279 297.83 564.779 297.771 560.756 296.877C560.13 296.728 559.743 296.251 559.743 295.595V287.758C559.743 287.102 560.011 286.446 560.458 285.97C562.872 283.675 566.895 282.036 571.216 281.231C571.901 281.112 572.438 281.5 572.557 282.185C572.646 282.87 572.229 283.437 571.574 283.556C568.325 284.211 565.256 285.314 563.11 286.774C562.574 287.162 562.276 287.788 562.276 288.443ZM590.01 294.165L582.142 290.38C581.546 290.112 581.189 290.321 581.189 290.976V296.31C581.189 297.055 580.682 297.592 579.937 297.592C579.192 297.592 578.656 297.055 578.656 296.31V278.013C578.656 277.268 579.162 276.732 579.907 276.732C580.652 276.732 581.189 277.268 581.189 278.013V285.88C581.189 286.536 581.516 286.655 582.083 286.208L589.205 280.427C589.801 279.92 590.576 279.95 591.082 280.486C591.589 281.053 591.5 281.798 590.904 282.274L584.407 287.519C583.9 287.937 583.96 288.354 584.526 288.652L592.155 292.526C592.841 292.883 593.258 293.569 593.258 294.344V296.34C593.258 297.055 592.751 297.592 592.006 297.592C591.291 297.592 590.755 297.055 590.755 296.34V295.357C590.755 294.82 590.486 294.403 590.01 294.165ZM629.861 290.648H620.236C619.58 290.648 619.193 291.036 619.193 291.691V296.251C619.193 297.026 618.656 297.592 617.852 297.592C617.077 297.592 616.511 297.026 616.511 296.251V277.775C616.511 277.119 616.898 276.732 617.554 276.732H629.861C630.517 276.732 630.964 277.119 631.024 277.775C631.5 281.708 631.5 285.672 631.024 289.605C630.964 290.261 630.517 290.648 629.861 290.648ZM619.193 280.039V287.341C619.193 287.996 619.58 288.384 620.236 288.384H627.358C628.014 288.384 628.461 287.996 628.55 287.341C628.848 284.897 628.848 282.483 628.55 280.039C628.461 279.384 628.014 278.996 627.358 278.996H620.236C619.58 278.996 619.193 279.384 619.193 280.039ZM640.43 287.221C639.894 287.609 639.596 288.235 639.596 288.89V296.31C639.596 297.055 639.089 297.592 638.344 297.592C637.599 297.592 637.063 297.055 637.063 296.31V282.781C637.063 282.036 637.569 281.5 638.314 281.5C639.059 281.5 639.596 282.036 639.596 282.781V284.062C639.596 284.718 639.923 284.897 640.46 284.539C642.516 283.228 645.675 281.738 649.519 281.44C650.175 281.41 650.562 281.768 650.562 282.423V287.46C650.562 288.175 650.085 288.682 649.37 288.682C648.655 288.682 648.148 288.175 648.148 287.46V284.956C648.148 284.301 647.761 283.973 647.135 284.092C644.542 284.629 642.367 285.761 640.43 287.221ZM661.935 297.592C657.912 297.592 654.545 294.195 654.545 290.738V287.877C654.545 284.42 658.061 281.202 661.935 281.202C665.809 281.202 669.326 284.42 669.326 287.877V290.738C669.326 294.195 665.958 297.592 661.935 297.592ZM661.935 295.327C664.439 295.327 666.644 293.301 666.644 291.006V287.46C666.644 285.314 664.439 283.466 661.935 283.466C659.432 283.466 657.227 285.314 657.227 287.46V291.006C657.227 293.301 659.432 295.327 661.935 295.327ZM680.997 297.592C676.974 297.592 673.607 294.195 673.607 290.738V287.877C673.607 284.42 677.123 281.202 680.997 281.202C684.871 281.202 688.387 284.42 688.387 287.877V290.738C688.387 294.195 685.02 297.592 680.997 297.592ZM680.997 295.327C683.5 295.327 685.705 293.301 685.705 291.006V287.46C685.705 285.314 683.5 283.466 680.997 283.466C678.494 283.466 676.289 285.314 676.289 287.46V291.006C676.289 293.301 678.494 295.327 680.997 295.327ZM706.406 285.582H702.145C701.489 285.582 701.102 285.97 701.102 286.625V296.251C701.102 297.026 700.565 297.592 699.761 297.592C698.986 297.592 698.42 297.026 698.42 296.251V286.625C698.42 285.97 698.032 285.582 697.377 285.582H693.413C692.758 285.582 692.281 285.105 692.281 284.42C692.281 283.735 692.758 283.258 693.413 283.258H697.377C698.032 283.258 698.42 282.87 698.42 282.215V278.758C698.42 277.566 699.105 276.761 700.267 276.583L706.168 275.689C706.853 275.599 707.419 276.016 707.509 276.702C707.628 277.387 707.181 277.983 706.496 278.073L702.145 278.788C701.489 278.877 701.102 279.324 701.102 279.98V282.215C701.102 282.87 701.489 283.258 702.145 283.258H706.406C707.062 283.258 707.539 283.735 707.539 284.42C707.539 285.105 707.062 285.582 706.406 285.582ZM726.63 292.496L726.272 295.953C726.183 296.608 725.766 297.055 725.11 297.145C721.355 297.681 717.392 297.741 713.607 297.175C712.922 297.055 712.475 296.459 712.564 295.774C712.684 295.089 713.25 294.671 713.846 294.761C716.707 295.208 719.687 295.357 722.637 294.969C723.292 294.88 723.739 294.433 723.859 293.777L723.829 293.897C723.948 293.241 723.65 292.705 723.024 292.466L712.952 288.443C712.326 288.205 711.968 287.668 711.968 287.013V282.99C711.968 282.334 712.356 281.887 713.011 281.827C717.183 281.321 721.355 281.321 725.527 281.827C726.183 281.887 726.57 282.334 726.57 282.99V286.357C726.57 287.102 726.064 287.609 725.349 287.609C724.633 287.609 724.097 287.102 724.097 286.357V285.135C724.097 284.48 723.71 284.033 723.084 283.913C720.64 283.556 718.077 283.556 715.544 283.913C714.889 284.033 714.501 284.48 714.501 285.135V285.582C714.501 286.238 714.859 286.774 715.485 287.013L725.766 291.066C726.392 291.304 726.719 291.84 726.63 292.496Z" fill="#010F22"/>
<line x1="5840" y1="1887" x2="5840" y2="64" stroke="#FE01AC" stroke-width="6"/>
<line x1="5972.71" y1="1887" x2="5972.71" y2="64" stroke="#FE01AC" stroke-width="6"/>
<line x1="6238.14" y1="1887" x2="6238.14" y2="64" stroke="#FE01AC" stroke-width="6"/>
<line x1="6769" y1="1887" x2="6769" y2="64" stroke="#FE01AC" stroke-width="6"/>
<path d="M3573.01 732.76V822.263L3495.51 867.006V777.503L3418.01 822.246V911.749L3340.5 867.006V777.503L3495.51 688L3573.01 732.76Z" fill="#010F22"/>
<path opacity="0.4" d="M3418.01 911.751L3340.5 956.495L3263 911.751L3340.5 867.008L3418.01 911.751Z" fill="#010F22"/>
<path d="M3495.51 956.493V1046L3340.5 1135.5L3263 1090.74V1001.24L3340.5 956.493V1046L3418.01 1001.25V911.75L3495.51 956.493Z" fill="#010F22"/>
<path opacity="0.4" d="M3573.02 911.751L3495.51 956.495L3418.01 911.751L3495.51 867.008L3573.02 911.751Z" fill="#010F22"/>
</g>
<defs>
<clipPath id="clip0_1883_1051">
<rect width="6836" height="1951" fill="white"/>
</clipPath>
</defs>
</svg>
