<svg width="1200" height="630" viewBox="0 0 1200 630" fill="none" xmlns="http://www.w3.org/2000/svg">
<g clip-path="url(#clip0_1883_961)">
<rect width="1200" height="630" fill="white"/>
<rect x="789.804" y="-53.5265" width="321.766" height="321.766" fill="white"/>
<rect x="789.804" y="-53.5265" width="321.766" height="321.766" stroke="#EEEEEE" stroke-width="3.1858"/>
<path d="M805.732 -37.5977V252.31H1095.64V-37.5977H805.732ZM840.571 107.356L922.357 69.1694H1067.31L985.525 107.356H840.571Z" stroke="#86B400" stroke-width="3.1858" stroke-linejoin="round"/>
<path d="M805.732 -37.5977L922.358 69.1694L840.571 107.356L805.732 252.31V-37.5977Z" stroke="#86B400" stroke-width="3.1858" stroke-linejoin="round"/>
<path d="M1095.64 -37.5977V252.31L985.524 107.356L1067.31 69.1694L1095.64 -37.5977Z" stroke="#86B400" stroke-width="3.1858" stroke-linejoin="round"/>
<rect x="195.796" y="193.062" width="807.599" height="807.599" fill="#EEEEEE"/>
<rect x="195.796" y="193.062" width="807.599" height="807.599" stroke="#DADADA" stroke-width="1.5929"/>
<rect width="796.449" height="796.449" transform="translate(201.372 198.637)" fill="white"/>
<path d="M695.388 480.525H488.774V714.751H695.388V480.525Z" stroke="#010F22" stroke-width="7.96449" stroke-linecap="round" stroke-linejoin="round"/>
<path d="M804.091 340.084H345.121V855.195H804.091V340.084Z" stroke="#90DCFF" stroke-width="7.96449" stroke-linecap="round" stroke-linejoin="round"/>
<path d="M853.27 237.73L272.976 311.096L272.976 892.117L853.27 957.546V237.73Z" stroke="#010F22" stroke-width="7.96449" stroke-linecap="round" stroke-linejoin="round"/>
<path d="M721.572 438.649L425.951 412.51V788.128L721.572 756.627V438.649Z" stroke="#90DCFF" stroke-width="7.96449" stroke-linecap="round" stroke-linejoin="round"/>
<path d="M853.271 237.73L925.823 340.083V855.194L853.271 957.546" stroke="#010F22" stroke-width="7.96449" stroke-linecap="round" stroke-linejoin="round"/>
<path d="M425.951 788.128L462.591 756.627H721.572V438.649H462.591L425.951 412.51V788.128Z" stroke="#90DCFF" stroke-width="7.96449" stroke-linecap="round" stroke-linejoin="round"/>
<path d="M425.951 788.128L462.591 756.627L488.775 714.751L721.572 756.627L695.388 714.751V480.525L721.572 438.649L488.775 480.525L462.591 438.649L425.951 412.51V788.128Z" stroke="#FE01AC" stroke-width="7.96449" stroke-linecap="round" stroke-linejoin="round"/>
<path d="M345.121 340.084V855.195" stroke="#010F22" stroke-width="7.96449" stroke-linecap="round" stroke-linejoin="round"/>
<path d="M272.976 892.117L345.121 855.194L853.27 957.546L804.091 855.194V340.083L853.27 237.73L345.121 340.083L272.976 311.096L272.976 892.117Z" stroke="#90DCFF" stroke-width="7.96449" stroke-linecap="round" stroke-linejoin="round"/>
<path d="M561.316 597.609C580.757 597.609 596.517 581.849 596.517 562.408C596.517 542.967 580.757 527.207 561.316 527.207C541.875 527.207 526.115 542.967 526.115 562.408C526.115 581.849 541.875 597.609 561.316 597.609Z" stroke="#010F22" stroke-width="7.96449" stroke-linecap="round" stroke-linejoin="round"/>
<rect x="196.145" y="162.355" width="193.637" height="31.1503" fill="#EEEEEE"/>
<rect x="196.145" y="162.355" width="193.637" height="31.1503" stroke="#DADADA" stroke-width="1.5929"/>
<circle cx="206.499" cy="177.929" r="4.77869" fill="#DADADA"/>
<path d="M235.179 181.493H236.266C236.669 181.493 236.967 181.791 236.967 182.211C236.967 182.632 236.669 182.93 236.266 182.93H229.169C228.766 182.93 228.469 182.632 228.469 182.211C228.469 181.791 228.766 181.493 229.169 181.493H232.411C232.797 181.493 233.024 181.265 233.024 180.88V172.609C233.024 172.224 232.797 171.996 232.411 171.996H231.517C231.132 171.996 230.904 172.224 230.904 172.609V173.923C230.904 174.379 230.606 174.694 230.151 174.694C229.695 174.694 229.38 174.379 229.38 173.923V171.278C229.38 170.892 229.608 170.664 229.993 170.664H233.83C234.286 170.664 234.566 170.945 234.566 171.4V180.88C234.566 181.265 234.794 181.493 235.179 181.493ZM241.096 176.149H246.948C247.351 176.149 247.649 176.447 247.649 176.85C247.649 177.253 247.351 177.55 246.948 177.55H241.096C240.693 177.55 240.395 177.253 240.395 176.85C240.395 176.447 240.693 176.149 241.096 176.149ZM252.672 177.55V180.652C252.672 181.037 252.899 181.3 253.267 181.37C255.212 181.668 257.07 181.616 258.979 181.265C259.365 181.177 259.68 181.405 259.733 181.791C259.785 182.194 259.54 182.527 259.172 182.614C256.789 183.07 254.143 183.035 251.778 182.509C251.41 182.422 251.182 182.141 251.182 181.756V177.147C251.182 176.762 251.34 176.377 251.603 176.096C253.022 174.747 255.387 173.783 257.928 173.31C258.331 173.24 258.646 173.468 258.717 173.871C258.769 174.274 258.524 174.607 258.138 174.677C256.228 175.062 254.424 175.711 253.162 176.569C252.847 176.797 252.672 177.165 252.672 177.55ZM267.787 181.598H269.942C270.327 181.598 270.608 181.878 270.608 182.264C270.608 182.649 270.327 182.93 269.942 182.93H262.916C262.53 182.93 262.25 182.649 262.25 182.264C262.25 181.878 262.53 181.598 262.916 181.598H265.071C265.456 181.598 265.684 181.37 265.684 180.985V172.609C265.684 172.224 265.456 171.996 265.071 171.996H262.916C262.53 171.996 262.25 171.716 262.25 171.33C262.25 170.945 262.53 170.664 262.916 170.664H266.56C266.946 170.664 267.173 170.892 267.173 171.278V180.985C267.173 181.37 267.401 181.598 267.787 181.598ZM276.349 170.104C276.384 169.771 276.594 169.56 276.927 169.525C277.418 169.49 277.873 169.49 278.381 169.525C278.697 169.56 278.925 169.771 278.96 170.104C278.995 170.594 278.995 171.05 278.96 171.558C278.925 171.873 278.697 172.101 278.381 172.119C277.873 172.171 277.418 172.171 276.927 172.119C276.594 172.101 276.384 171.873 276.349 171.558C276.314 171.05 276.314 170.594 276.349 170.104ZM278.995 181.598H281.15C281.535 181.598 281.816 181.878 281.816 182.264C281.816 182.649 281.535 182.93 281.15 182.93H274.124C273.738 182.93 273.458 182.649 273.458 182.264C273.458 181.878 273.738 181.598 274.124 181.598H276.279C276.664 181.598 276.892 181.37 276.892 180.985V175.763C276.892 175.378 276.664 175.15 276.279 175.15H274.124C273.738 175.15 273.458 174.87 273.458 174.484C273.458 174.099 273.738 173.818 274.124 173.818H281.15C281.535 173.818 281.816 174.099 281.816 174.484C281.816 174.87 281.535 175.15 281.15 175.15H278.995C278.609 175.15 278.381 175.378 278.381 175.763V180.985C278.381 181.37 278.609 181.598 278.995 181.598ZM286.295 177.55V180.652C286.295 181.037 286.523 181.3 286.891 181.37C288.836 181.668 290.693 181.616 292.603 181.265C292.988 181.177 293.304 181.405 293.356 181.791C293.409 182.194 293.164 182.527 292.796 182.614C290.413 183.07 287.767 183.035 285.401 182.509C285.033 182.422 284.806 182.141 284.806 181.756V177.147C284.806 176.762 284.963 176.377 285.226 176.096C286.645 174.747 289.011 173.783 291.552 173.31C291.955 173.24 292.27 173.468 292.34 173.871C292.393 174.274 292.147 174.607 291.762 174.677C289.852 175.062 288.047 175.711 286.786 176.569C286.47 176.797 286.295 177.165 286.295 177.55ZM302.602 180.915L297.976 178.689C297.626 178.532 297.415 178.654 297.415 179.04V182.176C297.415 182.614 297.117 182.93 296.679 182.93C296.241 182.93 295.926 182.614 295.926 182.176V171.418C295.926 170.98 296.224 170.664 296.662 170.664C297.1 170.664 297.415 170.98 297.415 171.418V176.044C297.415 176.429 297.608 176.499 297.941 176.236L302.129 172.837C302.479 172.539 302.935 172.557 303.233 172.872C303.53 173.205 303.478 173.643 303.127 173.923L299.308 177.007C299.01 177.253 299.045 177.498 299.378 177.673L303.863 179.951C304.266 180.161 304.512 180.564 304.512 181.02V182.194C304.512 182.614 304.214 182.93 303.776 182.93C303.355 182.93 303.04 182.614 303.04 182.194V181.616C303.04 181.3 302.882 181.055 302.602 180.915ZM326.034 178.847H320.374C319.989 178.847 319.761 179.075 319.761 179.46V182.141C319.761 182.597 319.446 182.93 318.972 182.93C318.517 182.93 318.184 182.597 318.184 182.141V171.278C318.184 170.892 318.412 170.664 318.797 170.664H326.034C326.419 170.664 326.682 170.892 326.717 171.278C326.997 173.591 326.997 175.921 326.717 178.234C326.682 178.619 326.419 178.847 326.034 178.847ZM319.761 172.609V176.902C319.761 177.288 319.989 177.515 320.374 177.515H324.562C324.947 177.515 325.21 177.288 325.263 176.902C325.438 175.465 325.438 174.046 325.263 172.609C325.21 172.224 324.947 171.996 324.562 171.996H320.374C319.989 171.996 319.761 172.224 319.761 172.609ZM332.248 176.832C331.932 177.06 331.757 177.428 331.757 177.813V182.176C331.757 182.614 331.459 182.93 331.021 182.93C330.583 182.93 330.268 182.614 330.268 182.176V174.221C330.268 173.783 330.566 173.468 331.004 173.468C331.442 173.468 331.757 173.783 331.757 174.221V174.975C331.757 175.36 331.95 175.465 332.265 175.255C333.474 174.484 335.332 173.608 337.592 173.433C337.978 173.415 338.205 173.626 338.205 174.011V176.972C338.205 177.393 337.925 177.691 337.504 177.691C337.084 177.691 336.786 177.393 336.786 176.972V175.5C336.786 175.115 336.558 174.922 336.19 174.992C334.666 175.308 333.387 175.973 332.248 176.832ZM344.892 182.93C342.527 182.93 340.547 180.932 340.547 178.9V177.218C340.547 175.185 342.615 173.293 344.892 173.293C347.17 173.293 349.238 175.185 349.238 177.218V178.9C349.238 180.932 347.258 182.93 344.892 182.93ZM344.892 181.598C346.364 181.598 347.661 180.407 347.661 179.057V176.972C347.661 175.711 346.364 174.624 344.892 174.624C343.421 174.624 342.124 175.711 342.124 176.972V179.057C342.124 180.407 343.421 181.598 344.892 181.598ZM356.1 182.93C353.735 182.93 351.755 180.932 351.755 178.9V177.218C351.755 175.185 353.822 173.293 356.1 173.293C358.378 173.293 360.446 175.185 360.446 177.218V178.9C360.446 180.932 358.466 182.93 356.1 182.93ZM356.1 181.598C357.572 181.598 358.869 180.407 358.869 179.057V176.972C358.869 175.711 357.572 174.624 356.1 174.624C354.628 174.624 353.332 175.711 353.332 176.972V179.057C353.332 180.407 354.628 181.598 356.1 181.598ZM371.04 175.868H368.535C368.149 175.868 367.921 176.096 367.921 176.482V182.141C367.921 182.597 367.606 182.93 367.133 182.93C366.677 182.93 366.344 182.597 366.344 182.141V176.482C366.344 176.096 366.117 175.868 365.731 175.868H363.401C363.015 175.868 362.735 175.588 362.735 175.185C362.735 174.782 363.015 174.502 363.401 174.502H365.731C366.117 174.502 366.344 174.274 366.344 173.888V171.856C366.344 171.155 366.747 170.682 367.431 170.577L370.9 170.051C371.303 169.999 371.636 170.244 371.689 170.647C371.759 171.05 371.496 171.4 371.093 171.453L368.535 171.873C368.149 171.926 367.921 172.189 367.921 172.574V173.888C367.921 174.274 368.149 174.502 368.535 174.502H371.04C371.426 174.502 371.706 174.782 371.706 175.185C371.706 175.588 371.426 175.868 371.04 175.868ZM382.932 179.933L382.721 181.966C382.669 182.351 382.423 182.614 382.038 182.667C379.83 182.982 377.5 183.017 375.274 182.684C374.871 182.614 374.609 182.264 374.661 181.861C374.731 181.458 375.064 181.213 375.415 181.265C377.097 181.528 378.849 181.616 380.584 181.388C380.969 181.335 381.232 181.072 381.302 180.687L381.284 180.757C381.355 180.371 381.179 180.056 380.811 179.916L374.889 177.55C374.521 177.41 374.311 177.095 374.311 176.709V174.344C374.311 173.958 374.539 173.696 374.924 173.661C377.377 173.363 379.83 173.363 382.283 173.661C382.669 173.696 382.896 173.958 382.896 174.344V176.324C382.896 176.762 382.599 177.06 382.178 177.06C381.758 177.06 381.442 176.762 381.442 176.324V175.606C381.442 175.22 381.214 174.957 380.846 174.887C379.41 174.677 377.903 174.677 376.413 174.887C376.028 174.957 375.8 175.22 375.8 175.606V175.868C375.8 176.254 376.01 176.569 376.378 176.709L382.423 179.092C382.791 179.233 382.984 179.548 382.932 179.933Z" fill="#010F22"/>
<rect x="968.407" y="390.407" width="321.766" height="321.766" fill="#FFE5F9"/>
<rect x="968.407" y="390.407" width="321.766" height="321.766" stroke="#EEEEEE" stroke-width="3.1858"/>
<path d="M984.336 406.336V696.243H1274.24V406.336H984.336ZM1109.91 466.328L1080.97 450.737H1225.93L1254.86 466.328H1109.91Z" stroke="#E8FE56" stroke-width="3.1858" stroke-linejoin="round"/>
<path d="M984.336 406.336L1080.97 450.737L1109.91 466.328L984.336 696.243V406.336Z" stroke="#E8FE56" stroke-width="3.1858" stroke-linejoin="round"/>
<rect x="-160.593" y="231.407" width="321.766" height="321.766" fill="white"/>
<rect x="-160.593" y="231.407" width="321.766" height="321.766" stroke="#EEEEEE" stroke-width="3.1858"/>
<path d="M-144.664 247.336V537.243H145.243V247.336H-144.664ZM-107.148 464.204V392.289H122.828L37.0745 464.204H-107.148Z" stroke="#90DCFF" stroke-width="3.1858" stroke-linejoin="round"/>
<path d="M145.245 247.336V537.243L37.0762 464.204L122.83 392.289L145.245 247.336Z" stroke="#90DCFF" stroke-width="3.1858" stroke-linejoin="round"/>
</g>
<defs>
<clipPath id="clip0_1883_961">
<rect width="1200" height="630" fill="white"/>
</clipPath>
</defs>
</svg>
