<svg width="2400" height="1350" viewBox="0 0 2400 1350" fill="none" xmlns="http://www.w3.org/2000/svg">
<g clip-path="url(#clip0_861_6604)">
<rect width="2400" height="1350" fill="white"/>
<rect x="-309.742" y="114.873" width="553.948" height="553.948" fill="white"/>
<rect x="-309.742" y="114.873" width="553.948" height="553.948" stroke="#EEEEEE" stroke-width="5.48463"/>
<path d="M-282.319 142.296V641.397H216.781V142.296H-282.319ZM-217.732 515.654V391.847H178.192L30.5599 515.654H-217.732Z" stroke="#90DCFF" stroke-width="5.48463" stroke-linejoin="round"/>
<path d="M216.783 142.296V641.397L30.5615 515.654L178.194 391.847L216.783 142.296Z" stroke="#90DCFF" stroke-width="5.48463" stroke-linejoin="round"/>
<rect x="1524.56" y="-124.742" width="553.948" height="553.948" fill="white"/>
<rect x="1524.56" y="-124.742" width="553.948" height="553.948" stroke="#EEEEEE" stroke-width="5.48463"/>
<path d="M1551.98 -97.3193V401.782H2051.08V-97.3193H1551.98ZM1611.96 152.232L1752.76 86.4897H2002.31L1861.51 152.232H1611.96Z" stroke="#86B400" stroke-width="5.48463" stroke-linejoin="round"/>
<path d="M1551.98 -97.3193L1752.76 86.4897L1611.96 152.232L1551.98 401.782V-97.3193Z" stroke="#86B400" stroke-width="5.48463" stroke-linejoin="round"/>
<path d="M2051.08 -97.3193V401.782L1861.51 152.232L2002.31 86.4897L2051.08 -97.3193Z" stroke="#86B400" stroke-width="5.48463" stroke-linejoin="round"/>
<rect x="444.203" y="205.475" width="1390.35" height="1390.35" fill="#EEEEEE"/>
<rect x="444.203" y="205.475" width="1390.35" height="1390.35" stroke="#DADADA" stroke-width="2.74232"/>
<rect width="1371.16" height="1371.16" transform="translate(453.802 215.073)" fill="white"/>
<path d="M1304.3 700.37H948.592V1103.61H1304.3V700.37Z" stroke="#010F22" stroke-width="13.7116" stroke-linecap="round" stroke-linejoin="round"/>
<path d="M1491.44 458.586H701.279V1345.4H1491.44V458.586Z" stroke="#90DCFF" stroke-width="13.7116" stroke-linecap="round" stroke-linejoin="round"/>
<path d="M1576.1 282.377L577.074 408.683L577.075 1408.96L1576.1 1521.6V282.377Z" stroke="#010F22" stroke-width="13.7116" stroke-linecap="round" stroke-linejoin="round"/>
<path d="M1349.37 628.276L840.436 583.275V1229.94L1349.37 1175.7V628.276Z" stroke="#90DCFF" stroke-width="13.7116" stroke-linecap="round" stroke-linejoin="round"/>
<path d="M1576.1 282.377L1701.01 458.586V1345.4L1576.1 1521.6" stroke="#010F22" stroke-width="13.7116" stroke-linecap="round" stroke-linejoin="round"/>
<path d="M840.436 1229.94L903.514 1175.7H1349.37V628.276H903.514L840.436 583.275V1229.94Z" stroke="#90DCFF" stroke-width="13.7116" stroke-linecap="round" stroke-linejoin="round"/>
<path d="M840.436 1229.94L903.514 1175.7L948.592 1103.61L1349.37 1175.7L1304.3 1103.61V700.371L1349.37 628.276L948.592 700.371L903.514 628.276L840.436 583.275V1229.94Z" stroke="#FE01AC" stroke-width="13.7116" stroke-linecap="round" stroke-linejoin="round"/>
<path d="M701.279 458.586V1345.4" stroke="#010F22" stroke-width="13.7116" stroke-linecap="round" stroke-linejoin="round"/>
<path d="M577.075 1408.96L701.279 1345.4L1576.1 1521.6L1491.44 1345.4V458.586L1576.1 282.377L701.279 458.586L577.074 408.683L577.075 1408.96Z" stroke="#90DCFF" stroke-width="13.7116" stroke-linecap="round" stroke-linejoin="round"/>
<path d="M1073.48 901.94C1106.95 901.94 1134.08 874.808 1134.08 841.339C1134.08 807.87 1106.95 780.738 1073.48 780.738C1040.01 780.738 1012.88 807.87 1012.88 841.339C1012.88 874.808 1040.01 901.94 1073.48 901.94Z" stroke="#010F22" stroke-width="13.7116" stroke-linecap="round" stroke-linejoin="round"/>
<rect x="444.448" y="152.825" width="334.073" height="53.1962" fill="#EEEEEE"/>
<rect x="444.448" y="152.825" width="334.073" height="53.1962" stroke="#DADADA" stroke-width="2.74232"/>
<circle cx="462.274" cy="179.423" r="8.22695" fill="#DADADA"/>
<path d="M511.649 185.95H513.519C514.213 185.95 514.726 186.463 514.726 187.187C514.726 187.911 514.213 188.423 513.519 188.423H501.302C500.609 188.423 500.096 187.911 500.096 187.187C500.096 186.463 500.609 185.95 501.302 185.95H506.883C507.547 185.95 507.939 185.558 507.939 184.894V170.656C507.939 169.992 507.547 169.6 506.883 169.6H505.345C504.681 169.6 504.289 169.992 504.289 170.656V172.918C504.289 173.703 503.776 174.246 502.992 174.246C502.207 174.246 501.664 173.703 501.664 172.918V168.363C501.664 167.7 502.057 167.307 502.72 167.307H509.326C510.111 167.307 510.593 167.79 510.593 168.574V184.894C510.593 185.558 510.985 185.95 511.649 185.95ZM521.834 176.749H531.91C532.604 176.749 533.116 177.262 533.116 177.956C533.116 178.65 532.604 179.163 531.91 179.163H521.834C521.141 179.163 520.628 178.65 520.628 177.956C520.628 177.262 521.141 176.749 521.834 176.749ZM541.763 179.163V184.502C541.763 185.165 542.155 185.618 542.789 185.739C546.137 186.251 549.335 186.161 552.623 185.558C553.286 185.407 553.829 185.799 553.92 186.463C554.01 187.156 553.588 187.73 552.955 187.88C548.852 188.665 544.297 188.604 540.225 187.699C539.591 187.549 539.199 187.066 539.199 186.402V178.469C539.199 177.805 539.471 177.141 539.923 176.659C542.367 174.336 546.439 172.677 550.813 171.862C551.507 171.742 552.05 172.134 552.17 172.828C552.261 173.522 551.839 174.095 551.175 174.215C547.887 174.879 544.78 175.995 542.608 177.473C542.065 177.865 541.763 178.499 541.763 179.163ZM567.785 186.131H571.496C572.159 186.131 572.642 186.613 572.642 187.277C572.642 187.941 572.159 188.423 571.496 188.423H559.399C558.736 188.423 558.253 187.941 558.253 187.277C558.253 186.613 558.736 186.131 559.399 186.131H563.11C563.773 186.131 564.166 185.739 564.166 185.075V170.656C564.166 169.992 563.773 169.6 563.11 169.6H559.399C558.736 169.6 558.253 169.117 558.253 168.454C558.253 167.79 558.736 167.307 559.399 167.307H565.674C566.338 167.307 566.73 167.7 566.73 168.363V185.075C566.73 185.739 567.122 186.131 567.785 186.131ZM582.526 166.342C582.586 165.769 582.948 165.407 583.521 165.347C584.366 165.286 585.15 165.286 586.025 165.347C586.568 165.407 586.96 165.769 587.02 166.342C587.081 167.187 587.081 167.971 587.02 168.846C586.96 169.389 586.568 169.781 586.025 169.811C585.15 169.902 584.366 169.902 583.521 169.811C582.948 169.781 582.586 169.389 582.526 168.846C582.465 167.971 582.465 167.187 582.526 166.342ZM587.081 186.131H590.791C591.455 186.131 591.937 186.613 591.937 187.277C591.937 187.941 591.455 188.423 590.791 188.423H578.695C578.031 188.423 577.548 187.941 577.548 187.277C577.548 186.613 578.031 186.131 578.695 186.131H582.405C583.069 186.131 583.461 185.739 583.461 185.075V176.086C583.461 175.422 583.069 175.03 582.405 175.03H578.695C578.031 175.03 577.548 174.547 577.548 173.884C577.548 173.22 578.031 172.737 578.695 172.737H590.791C591.455 172.737 591.937 173.22 591.937 173.884C591.937 174.547 591.455 175.03 590.791 175.03H587.081C586.417 175.03 586.025 175.422 586.025 176.086V185.075C586.025 185.739 586.417 186.131 587.081 186.131ZM599.649 179.163V184.502C599.649 185.165 600.041 185.618 600.675 185.739C604.023 186.251 607.221 186.161 610.509 185.558C611.172 185.407 611.715 185.799 611.806 186.463C611.896 187.156 611.474 187.73 610.841 187.88C606.738 188.665 602.183 188.604 598.111 187.699C597.477 187.549 597.085 187.066 597.085 186.402V178.469C597.085 177.805 597.357 177.141 597.809 176.659C600.252 174.336 604.325 172.677 608.699 171.862C609.393 171.742 609.936 172.134 610.056 172.828C610.147 173.522 609.724 174.095 609.061 174.215C605.773 174.879 602.666 175.995 600.494 177.473C599.951 177.865 599.649 178.499 599.649 179.163ZM627.723 184.954L619.759 181.123C619.156 180.852 618.794 181.063 618.794 181.727V187.126C618.794 187.88 618.281 188.423 617.527 188.423C616.773 188.423 616.23 187.88 616.23 187.126V168.605C616.23 167.85 616.742 167.307 617.497 167.307C618.251 167.307 618.794 167.85 618.794 168.605V176.568C618.794 177.232 619.125 177.353 619.699 176.9L626.908 171.048C627.511 170.535 628.296 170.565 628.809 171.108C629.321 171.681 629.231 172.436 628.628 172.918L622.052 178.227C621.539 178.65 621.599 179.072 622.172 179.374L629.895 183.295C630.588 183.657 631.011 184.351 631.011 185.135V187.156C631.011 187.88 630.498 188.423 629.744 188.423C629.02 188.423 628.477 187.88 628.477 187.156V186.161C628.477 185.618 628.205 185.196 627.723 184.954ZM668.063 181.395H658.319C657.656 181.395 657.264 181.787 657.264 182.451V187.066C657.264 187.85 656.721 188.423 655.906 188.423C655.122 188.423 654.549 187.85 654.549 187.066V168.363C654.549 167.7 654.941 167.307 655.605 167.307H668.063C668.726 167.307 669.179 167.7 669.239 168.363C669.722 172.345 669.722 176.357 669.239 180.339C669.179 181.003 668.726 181.395 668.063 181.395ZM657.264 170.656V178.046C657.264 178.71 657.656 179.102 658.319 179.102H665.529C666.193 179.102 666.645 178.71 666.736 178.046C667.037 175.573 667.037 173.129 666.736 170.656C666.645 169.992 666.193 169.6 665.529 169.6H658.319C657.656 169.6 657.264 169.992 657.264 170.656ZM678.761 177.926C678.218 178.318 677.916 178.951 677.916 179.615V187.126C677.916 187.88 677.404 188.423 676.649 188.423C675.895 188.423 675.352 187.88 675.352 187.126V173.431C675.352 172.677 675.865 172.134 676.619 172.134C677.373 172.134 677.916 172.677 677.916 173.431V174.728C677.916 175.392 678.248 175.573 678.791 175.211C680.873 173.884 684.07 172.375 687.961 172.074C688.625 172.043 689.017 172.405 689.017 173.069V178.167C689.017 178.891 688.535 179.404 687.811 179.404C687.087 179.404 686.574 178.891 686.574 178.167V175.633C686.574 174.97 686.182 174.638 685.548 174.758C682.924 175.301 680.722 176.448 678.761 177.926ZM700.53 188.423C696.458 188.423 693.049 184.984 693.049 181.485V178.589C693.049 175.09 696.608 171.832 700.53 171.832C704.451 171.832 708.011 175.09 708.011 178.589V181.485C708.011 184.984 704.602 188.423 700.53 188.423ZM700.53 186.131C703.064 186.131 705.296 184.08 705.296 181.757V178.167C705.296 175.995 703.064 174.125 700.53 174.125C697.996 174.125 695.764 175.995 695.764 178.167V181.757C695.764 184.08 697.996 186.131 700.53 186.131ZM719.825 188.423C715.753 188.423 712.344 184.984 712.344 181.485V178.589C712.344 175.09 715.904 171.832 719.825 171.832C723.747 171.832 727.306 175.09 727.306 178.589V181.485C727.306 184.984 723.898 188.423 719.825 188.423ZM719.825 186.131C722.359 186.131 724.591 184.08 724.591 181.757V178.167C724.591 175.995 722.359 174.125 719.825 174.125C717.291 174.125 715.059 175.995 715.059 178.167V181.757C715.059 184.08 717.291 186.131 719.825 186.131ZM745.546 176.267H741.232C740.568 176.267 740.176 176.659 740.176 177.322V187.066C740.176 187.85 739.633 188.423 738.819 188.423C738.035 188.423 737.461 187.85 737.461 187.066V177.322C737.461 176.659 737.069 176.267 736.406 176.267H732.394C731.73 176.267 731.247 175.784 731.247 175.09C731.247 174.396 731.73 173.914 732.394 173.914H736.406C737.069 173.914 737.461 173.522 737.461 172.858V169.359C737.461 168.152 738.155 167.338 739.332 167.157L745.304 166.252C745.998 166.161 746.571 166.584 746.662 167.277C746.783 167.971 746.33 168.574 745.636 168.665L741.232 169.389C740.568 169.479 740.176 169.932 740.176 170.596V172.858C740.176 173.522 740.568 173.914 741.232 173.914H745.546C746.209 173.914 746.692 174.396 746.692 175.09C746.692 175.784 746.209 176.267 745.546 176.267ZM766.018 183.265L765.656 186.764C765.565 187.428 765.143 187.88 764.479 187.971C760.678 188.514 756.666 188.574 752.835 188.001C752.141 187.88 751.689 187.277 751.779 186.583C751.9 185.889 752.473 185.467 753.077 185.558C755.972 186.01 758.989 186.161 761.975 185.769C762.639 185.678 763.091 185.226 763.212 184.562L763.182 184.683C763.303 184.019 763.001 183.476 762.367 183.235L752.172 179.163C751.538 178.921 751.176 178.378 751.176 177.715V173.642C751.176 172.979 751.568 172.526 752.232 172.466C756.455 171.953 760.678 171.953 764.901 172.466C765.565 172.526 765.957 172.979 765.957 173.642V177.051C765.957 177.805 765.444 178.318 764.72 178.318C763.996 178.318 763.453 177.805 763.453 177.051V175.814C763.453 175.151 763.061 174.698 762.428 174.577C759.954 174.215 757.36 174.215 754.796 174.577C754.132 174.698 753.74 175.151 753.74 175.814V176.267C753.74 176.93 754.102 177.473 754.736 177.715L765.143 181.817C765.776 182.058 766.108 182.601 766.018 183.265Z" fill="#010F22"/>
<rect x="2155.17" y="920.152" width="553.948" height="553.948" fill="#FFE5F9"/>
<rect x="2155.17" y="920.152" width="553.948" height="553.948" stroke="#EEEEEE" stroke-width="5.48463"/>
<path d="M2182.59 947.575V1446.68H2681.69V947.575H2182.59ZM2398.78 1050.86L2348.96 1024.02H2598.51L2648.33 1050.86H2398.78Z" stroke="#E8FE56" stroke-width="5.48463" stroke-linejoin="round"/>
<path d="M2182.59 947.575L2348.96 1024.02L2398.78 1050.86L2182.59 1446.68V947.575Z" stroke="#E8FE56" stroke-width="5.48463" stroke-linejoin="round"/>
</g>
<rect x="0.5" y="0.5" width="2399" height="1349" stroke="#010F22"/>
<defs>
<clipPath id="clip0_861_6604">
<rect width="2400" height="1350" fill="white"/>
</clipPath>
</defs>
</svg>
