<svg width="1200" height="630" viewBox="0 0 1200 630" fill="none" xmlns="http://www.w3.org/2000/svg">
<g clip-path="url(#clip0_1883_961)">
<rect width="1200" height="630" fill="white"/>
<rect x="789.804" y="-53.5265" width="321.766" height="321.766" fill="white"/>
<rect x="789.804" y="-53.5265" width="321.766" height="321.766" stroke="#EEEEEE" stroke-width="3.1858"/>
<path d="M805.732 -37.5977V252.31H1095.64V-37.5977H805.732ZM840.571 107.356L922.357 69.1694H1067.31L985.525 107.356H840.571Z" stroke="#86B400" stroke-width="3.1858" stroke-linejoin="round"/>
<path d="M805.732 -37.5977L922.358 69.1694L840.571 107.356L805.732 252.31V-37.5977Z" stroke="#86B400" stroke-width="3.1858" stroke-linejoin="round"/>
<path d="M1095.64 -37.5977V252.31L985.524 107.356L1067.31 69.1694L1095.64 -37.5977Z" stroke="#86B400" stroke-width="3.1858" stroke-linejoin="round"/>
<rect x="195.796" y="193.062" width="807.599" height="807.599" fill="#EEEEEE"/>
<rect x="195.796" y="193.062" width="807.599" height="807.599" stroke="#DADADA" stroke-width="1.5929"/>
<rect width="796.449" height="796.449" transform="translate(201.372 198.637)" fill="white"/>
<path d="M695.388 480.525H488.774V714.751H695.388V480.525Z" stroke="#010F22" stroke-width="7.96449" stroke-linecap="round" stroke-linejoin="round"/>
<path d="M804.091 340.084H345.121V855.195H804.091V340.084Z" stroke="#90DCFF" stroke-width="7.96449" stroke-linecap="round" stroke-linejoin="round"/>
<path d="M853.27 237.73L272.976 311.096L272.976 892.117L853.27 957.546V237.73Z" stroke="#010F22" stroke-width="7.96449" stroke-linecap="round" stroke-linejoin="round"/>
<path d="M721.572 438.649L425.951 412.51V788.128L721.572 756.627V438.649Z" stroke="#90DCFF" stroke-width="7.96449" stroke-linecap="round" stroke-linejoin="round"/>
<path d="M853.271 237.73L925.823 340.083V855.194L853.271 957.546" stroke="#010F22" stroke-width="7.96449" stroke-linecap="round" stroke-linejoin="round"/>
<path d="M425.951 788.128L462.591 756.627H721.572V438.649H462.591L425.951 412.51V788.128Z" stroke="#90DCFF" stroke-width="7.96449" stroke-linecap="round" stroke-linejoin="round"/>
<path d="M425.951 788.128L462.591 756.627L488.775 714.751L721.572 756.627L695.388 714.751V480.525L721.572 438.649L488.775 480.525L462.591 438.649L425.951 412.51V788.128Z" stroke="#FE01AC" stroke-width="7.96449" stroke-linecap="round" stroke-linejoin="round"/>
<path d="M345.121 340.084V855.195" stroke="#010F22" stroke-width="7.96449" stroke-linecap="round" stroke-linejoin="round"/>
<path d="M272.976 892.117L345.121 855.194L853.27 957.546L804.091 855.194V340.083L853.27 237.73L345.121 340.083L272.976 311.096L272.976 892.117Z" stroke="#90DCFF" stroke-width="7.96449" stroke-linecap="round" stroke-linejoin="round"/>
<path d="M561.316 597.609C580.757 597.609 596.517 581.849 596.517 562.408C596.517 542.967 580.757 527.207 561.316 527.207C541.875 527.207 526.115 542.967 526.115 562.408C526.115 581.849 541.875 597.609 561.316 597.609Z" stroke="#010F22" stroke-width="7.96449" stroke-linecap="round" stroke-linejoin="round"/>
<rect x="195.796" y="162.796" width="294.637" height="31.1503" fill="#EEEEEE"/>
<rect x="195.796" y="162.796" width="294.637" height="31.1503" stroke="#DADADA" stroke-width="1.5929"/>
<circle cx="206.151" cy="178.37" r="4.77869" fill="#DADADA"/>
<path d="M237.004 179.499L236.758 182.442C236.723 182.828 236.478 183.091 236.092 183.143C233.885 183.476 231.537 183.511 229.276 183.213C228.873 183.143 228.628 182.793 228.681 182.372C228.733 181.952 229.084 181.689 229.452 181.742C231.169 181.987 232.921 182.074 234.621 181.847C235.006 181.794 235.251 181.531 235.286 181.146L235.374 180.2C235.409 179.814 235.234 179.464 234.901 179.271L228.891 175.644C228.558 175.451 228.365 175.101 228.365 174.715V172.105C228.365 171.719 228.593 171.456 228.979 171.386C231.432 171.018 233.885 171.001 236.338 171.351C236.723 171.421 236.951 171.684 236.951 172.069V174.628C236.951 175.083 236.653 175.416 236.198 175.416C235.777 175.416 235.462 175.083 235.462 174.628V173.243C235.462 172.858 235.234 172.595 234.848 172.525C233.394 172.332 231.957 172.35 230.556 172.56C230.17 172.63 229.942 172.893 229.942 173.278V173.979C229.942 174.365 230.135 174.715 230.468 174.908L236.53 178.57C236.863 178.763 237.039 179.113 237.004 179.499ZM239.503 179.218C239.503 178.342 239.678 177.747 239.941 176.976L240.817 174.417C240.94 174.049 241.273 173.857 241.606 173.927C241.939 174.014 242.114 174.347 242.009 174.733L241.343 177.273C241.133 178.079 241.045 178.412 241.045 179.061C241.045 180.34 242.219 181.233 243.726 181.233C245.233 181.233 246.407 180.322 246.407 179.061C246.407 178.412 246.319 178.062 246.109 177.273L245.425 174.698C245.32 174.312 245.496 173.979 245.828 173.909C246.161 173.822 246.494 174.014 246.617 174.382L247.511 176.976C247.773 177.747 247.949 178.342 247.949 179.218C247.949 181.426 245.916 182.6 243.726 182.6C241.536 182.6 239.503 181.444 239.503 179.218ZM252.323 177.992V181.093C252.323 181.479 252.551 181.742 252.919 181.812C254.864 182.11 256.721 182.057 258.631 181.707C259.016 181.619 259.332 181.847 259.384 182.232C259.437 182.635 259.191 182.968 258.824 183.056C256.441 183.511 253.795 183.476 251.429 182.951C251.061 182.863 250.834 182.583 250.834 182.197V177.589C250.834 177.203 250.991 176.818 251.254 176.538C252.673 175.188 255.039 174.225 257.579 173.752C257.982 173.681 258.298 173.909 258.368 174.312C258.421 174.715 258.175 175.048 257.79 175.118C255.88 175.504 254.075 176.152 252.814 177.011C252.498 177.238 252.323 177.606 252.323 177.992ZM263.531 177.992V181.093C263.531 181.479 263.759 181.742 264.126 181.812C266.071 182.11 267.929 182.057 269.839 181.707C270.224 181.619 270.539 181.847 270.592 182.232C270.645 182.635 270.399 182.968 270.031 183.056C267.648 183.511 265.003 183.476 262.637 182.951C262.269 182.863 262.041 182.583 262.041 182.197V177.589C262.041 177.203 262.199 176.818 262.462 176.538C263.881 175.188 266.247 174.225 268.787 173.752C269.19 173.681 269.506 173.909 269.576 174.312C269.628 174.715 269.383 175.048 268.998 175.118C267.088 175.504 265.283 176.152 264.021 177.011C263.706 177.238 263.531 177.606 263.531 177.992ZM276 170.545C276.035 170.212 276.245 170.002 276.578 169.967C277.069 169.932 277.525 169.932 278.033 169.967C278.348 170.002 278.576 170.212 278.611 170.545C278.646 171.036 278.646 171.491 278.611 171.999C278.576 172.315 278.348 172.543 278.033 172.56C277.525 172.613 277.069 172.613 276.578 172.56C276.245 172.543 276.035 172.315 276 171.999C275.965 171.491 275.965 171.036 276 170.545ZM278.646 182.039H280.801C281.187 182.039 281.467 182.32 281.467 182.705C281.467 183.091 281.187 183.371 280.801 183.371H273.775C273.389 183.371 273.109 183.091 273.109 182.705C273.109 182.32 273.389 182.039 273.775 182.039H275.93C276.316 182.039 276.543 181.812 276.543 181.426V176.205C276.543 175.819 276.316 175.591 275.93 175.591H273.775C273.389 175.591 273.109 175.311 273.109 174.926C273.109 174.54 273.389 174.26 273.775 174.26H280.801C281.187 174.26 281.467 174.54 281.467 174.926C281.467 175.311 281.187 175.591 280.801 175.591H278.646C278.26 175.591 278.033 175.819 278.033 176.205V181.426C278.033 181.812 278.26 182.039 278.646 182.039ZM288.207 175.644L286.42 177.203C286.139 177.449 285.964 177.834 285.964 178.22V182.618C285.964 183.056 285.666 183.371 285.228 183.371C284.79 183.371 284.475 183.056 284.475 182.618V174.663C284.475 174.225 284.772 173.909 285.211 173.909C285.649 173.909 285.964 174.225 285.964 174.663V175.311C285.964 175.697 286.139 175.767 286.42 175.504L287.699 174.33C287.979 174.067 288.382 173.909 288.767 173.909H291.939C292.324 173.909 292.552 174.137 292.552 174.523V182.618C292.552 183.056 292.254 183.371 291.816 183.371C291.378 183.371 291.063 183.056 291.063 182.618V175.854C291.063 175.469 290.835 175.241 290.45 175.241H289.276C288.89 175.241 288.487 175.399 288.207 175.644ZM297.154 177.992V181.093C297.154 181.479 297.382 181.742 297.75 181.812C299.695 182.11 301.552 182.057 303.462 181.707C303.848 181.619 304.163 181.847 304.216 182.232C304.268 182.635 304.023 182.968 303.655 183.056C301.272 183.511 298.626 183.476 296.261 182.951C295.893 182.863 295.665 182.583 295.665 182.197V177.589C295.665 177.203 295.823 176.818 296.085 176.538C297.505 175.188 299.87 174.225 302.411 173.752C302.814 173.681 303.129 173.909 303.199 174.312C303.252 174.715 303.007 175.048 302.621 175.118C300.711 175.504 298.906 176.152 297.645 177.011C297.329 177.238 297.154 177.606 297.154 177.992ZM315.161 176.31H312.269C311.884 176.31 311.656 176.538 311.656 176.923V182.583C311.656 183.038 311.358 183.371 310.903 183.371C310.482 183.371 310.167 183.038 310.167 182.583V176.923C310.167 176.538 309.939 176.31 309.554 176.31L306.68 176.275C306.295 176.275 306.014 175.994 306.014 175.609C306.014 175.223 306.295 174.943 306.68 174.943H309.554C309.939 174.943 310.167 174.715 310.167 174.33V171.894C310.167 171.439 310.465 171.106 310.92 171.106C311.341 171.106 311.656 171.439 311.656 171.894V174.33C311.656 174.715 311.884 174.943 312.269 174.943L315.161 174.978C315.546 174.978 315.826 175.258 315.826 175.644C315.826 176.029 315.546 176.31 315.161 176.31ZM336.893 179.288H331.233C330.848 179.288 330.62 179.516 330.62 179.902V182.583C330.62 183.038 330.305 183.371 329.832 183.371C329.376 183.371 329.043 183.038 329.043 182.583V171.719C329.043 171.334 329.271 171.106 329.656 171.106H336.893C337.278 171.106 337.541 171.334 337.576 171.719C337.857 174.032 337.857 176.362 337.576 178.675C337.541 179.061 337.278 179.288 336.893 179.288ZM330.62 173.051V177.344C330.62 177.729 330.848 177.957 331.233 177.957H335.421C335.807 177.957 336.069 177.729 336.122 177.344C336.297 175.907 336.297 174.487 336.122 173.051C336.069 172.665 335.807 172.437 335.421 172.437H331.233C330.848 172.437 330.62 172.665 330.62 173.051ZM343.107 177.273C342.792 177.501 342.616 177.869 342.616 178.255V182.618C342.616 183.056 342.319 183.371 341.881 183.371C341.442 183.371 341.127 183.056 341.127 182.618V174.663C341.127 174.225 341.425 173.909 341.863 173.909C342.301 173.909 342.616 174.225 342.616 174.663V175.416C342.616 175.802 342.809 175.907 343.125 175.697C344.334 174.926 346.191 174.049 348.451 173.874C348.837 173.857 349.064 174.067 349.064 174.452V177.414C349.064 177.834 348.784 178.132 348.364 178.132C347.943 178.132 347.645 177.834 347.645 177.414V175.942C347.645 175.556 347.417 175.364 347.049 175.434C345.525 175.749 344.246 176.415 343.107 177.273ZM355.752 183.371C353.386 183.371 351.406 181.374 351.406 179.341V177.659C351.406 175.626 353.474 173.734 355.752 173.734C358.03 173.734 360.097 175.626 360.097 177.659V179.341C360.097 181.374 358.117 183.371 355.752 183.371ZM355.752 182.039C357.224 182.039 358.52 180.848 358.52 179.499V177.414C358.52 176.152 357.224 175.066 355.752 175.066C354.28 175.066 352.983 176.152 352.983 177.414V179.499C352.983 180.848 354.28 182.039 355.752 182.039ZM369.693 174.663C369.693 174.225 370.008 173.909 370.446 173.909C370.884 173.909 371.182 174.225 371.182 174.663V176.135C371.182 176.52 371.06 176.941 370.849 177.273L368.134 181.531C367.923 181.864 367.801 182.285 367.801 182.67V182.565C367.801 183.038 367.45 183.371 366.96 183.371C366.469 183.371 366.118 183.038 366.118 182.565V182.67C366.118 182.285 365.996 181.864 365.786 181.531L363.07 177.273C362.859 176.941 362.737 176.52 362.737 176.135V174.663C362.737 174.225 363.052 173.909 363.49 173.909C363.928 173.909 364.226 174.225 364.226 174.663V175.819C364.226 176.205 364.349 176.625 364.577 176.941L365.768 178.675C365.996 178.991 366.346 179.183 366.732 179.183H367.187C367.573 179.183 367.923 178.991 368.151 178.675L369.343 176.941C369.57 176.625 369.693 176.205 369.693 175.819V174.663ZM381.637 183.371H375.136C374.751 183.371 374.505 183.143 374.488 182.758L374.12 174.593C374.102 174.207 374.313 173.962 374.698 173.909C377.028 173.681 379.359 173.699 381.689 173.909C382.075 173.962 382.303 174.207 382.303 174.593V177.466C382.303 177.852 382.075 178.132 381.707 178.202L376.398 179.359C376.03 179.429 375.819 179.709 375.837 180.095L375.907 181.426C375.925 181.812 376.17 182.039 376.555 182.039H381.637C382.022 182.039 382.303 182.32 382.303 182.705C382.303 183.091 382.022 183.371 381.637 183.371ZM375.644 175.854L375.714 177.519C375.732 177.904 375.977 178.079 376.345 178.009L380.235 177.168C380.603 177.098 380.831 176.818 380.831 176.432V175.854C380.831 175.469 380.603 175.206 380.217 175.171C378.886 175.031 377.554 175.031 376.222 175.171C375.837 175.206 375.627 175.469 375.644 175.854ZM387.938 177.273C387.623 177.501 387.448 177.869 387.448 178.255V182.618C387.448 183.056 387.15 183.371 386.712 183.371C386.274 183.371 385.958 183.056 385.958 182.618V174.663C385.958 174.225 386.256 173.909 386.694 173.909C387.132 173.909 387.448 174.225 387.448 174.663V175.416C387.448 175.802 387.641 175.907 387.956 175.697C389.165 174.926 391.022 174.049 393.283 173.874C393.668 173.857 393.896 174.067 393.896 174.452V177.414C393.896 177.834 393.616 178.132 393.195 178.132C392.774 178.132 392.477 177.834 392.477 177.414V175.942C392.477 175.556 392.249 175.364 391.881 175.434C390.356 175.749 389.077 176.415 387.938 177.273ZM414.034 177.939L409.548 175.153C409.215 174.943 409.022 175.048 409.022 175.434V182.583C409.022 183.038 408.707 183.371 408.234 183.371C407.778 183.371 407.445 183.038 407.445 182.583V171.894C407.445 171.439 407.761 171.106 408.234 171.106C408.69 171.106 409.022 171.439 409.022 171.894V172.56C409.022 172.946 409.215 173.296 409.548 173.506L414.034 176.327C414.367 176.538 414.559 176.432 414.559 176.047V171.894C414.559 171.439 414.875 171.106 415.348 171.106C415.803 171.106 416.136 171.439 416.136 171.894V182.583C416.136 183.038 415.821 183.371 415.348 183.371C414.892 183.371 414.559 183.038 414.559 182.583V178.885C414.559 178.5 414.367 178.15 414.034 177.939ZM426.468 183.371H419.967C419.582 183.371 419.337 183.143 419.319 182.758L418.951 174.593C418.934 174.207 419.144 173.962 419.529 173.909C421.86 173.681 424.19 173.699 426.521 173.909C426.906 173.962 427.134 174.207 427.134 174.593V177.466C427.134 177.852 426.906 178.132 426.538 178.202L421.229 179.359C420.861 179.429 420.651 179.709 420.668 180.095L420.738 181.426C420.756 181.812 421.001 182.039 421.387 182.039H426.468C426.854 182.039 427.134 182.32 427.134 182.705C427.134 183.091 426.854 183.371 426.468 183.371ZM420.476 175.854L420.546 177.519C420.563 177.904 420.809 178.079 421.176 178.009L425.066 177.168C425.434 177.098 425.662 176.818 425.662 176.432V175.854C425.662 175.469 425.434 175.206 425.049 175.171C423.717 175.031 422.385 175.031 421.054 175.171C420.668 175.206 420.458 175.469 420.476 175.854ZM438.447 176.31H435.556C435.17 176.31 434.943 176.538 434.943 176.923V182.583C434.943 183.038 434.645 183.371 434.189 183.371C433.769 183.371 433.453 183.038 433.453 182.583V176.923C433.453 176.538 433.225 176.31 432.84 176.31L429.966 176.275C429.581 176.275 429.3 175.994 429.3 175.609C429.3 175.223 429.581 174.943 429.966 174.943H432.84C433.225 174.943 433.453 174.715 433.453 174.33V171.894C433.453 171.439 433.751 171.106 434.207 171.106C434.627 171.106 434.943 171.439 434.943 171.894V174.33C434.943 174.715 435.17 174.943 435.556 174.943L438.447 174.978C438.832 174.978 439.113 175.258 439.113 175.644C439.113 176.029 438.832 176.31 438.447 176.31ZM444.871 178.465L442.751 181.321C442.576 181.549 442.488 181.829 442.488 182.092V182.583C442.488 183.038 442.19 183.371 441.735 183.371C441.314 183.371 440.999 183.038 440.999 182.583V174.698C440.999 174.242 441.297 173.909 441.752 173.909C442.173 173.909 442.488 174.242 442.488 174.698V178.237C442.488 178.412 442.611 178.553 442.769 178.553C442.926 178.553 443.119 178.447 443.207 178.29L444.398 176.73C444.556 176.503 444.643 176.222 444.643 175.942V174.68C444.643 174.225 444.959 173.892 445.414 173.892C445.852 173.892 446.185 174.225 446.185 174.68V175.942C446.185 176.222 446.273 176.503 446.431 176.73L447.622 178.29C447.71 178.447 447.903 178.553 448.06 178.553C448.218 178.553 448.341 178.412 448.341 178.237V174.698C448.341 174.242 448.638 173.909 449.094 173.909C449.515 173.909 449.83 174.242 449.83 174.698V182.583C449.83 183.038 449.532 183.371 449.077 183.371C448.656 183.371 448.341 183.038 448.341 182.583V182.092C448.341 181.829 448.253 181.549 448.078 181.321L445.958 178.465C445.625 178.009 445.204 178.009 444.871 178.465ZM456.622 183.371C454.257 183.371 452.277 181.374 452.277 179.341V177.659C452.277 175.626 454.344 173.734 456.622 173.734C458.9 173.734 460.968 175.626 460.968 177.659V179.341C460.968 181.374 458.988 183.371 456.622 183.371ZM456.622 182.039C458.094 182.039 459.391 180.848 459.391 179.499V177.414C459.391 176.152 458.094 175.066 456.622 175.066C455.15 175.066 453.854 176.152 453.854 177.414V179.499C453.854 180.848 455.15 182.039 456.622 182.039ZM466.393 177.273C466.078 177.501 465.903 177.869 465.903 178.255V182.618C465.903 183.056 465.605 183.371 465.167 183.371C464.729 183.371 464.413 183.056 464.413 182.618V174.663C464.413 174.225 464.711 173.909 465.149 173.909C465.587 173.909 465.903 174.225 465.903 174.663V175.416C465.903 175.802 466.095 175.907 466.411 175.697C467.62 174.926 469.477 174.049 471.738 173.874C472.123 173.857 472.351 174.067 472.351 174.452V177.414C472.351 177.834 472.07 178.132 471.65 178.132C471.229 178.132 470.932 177.834 470.932 177.414V175.942C470.932 175.556 470.704 175.364 470.336 175.434C468.811 175.749 467.532 176.415 466.393 177.273ZM481.579 181.356L476.953 179.131C476.602 178.973 476.392 179.096 476.392 179.481V182.618C476.392 183.056 476.094 183.371 475.656 183.371C475.218 183.371 474.903 183.056 474.903 182.618V171.859C474.903 171.421 475.201 171.106 475.639 171.106C476.077 171.106 476.392 171.421 476.392 171.859V176.485C476.392 176.87 476.585 176.941 476.918 176.678L481.106 173.278C481.456 172.981 481.912 172.998 482.209 173.314C482.507 173.646 482.455 174.084 482.104 174.365L478.285 177.449C477.987 177.694 478.022 177.939 478.355 178.115L482.84 180.392C483.243 180.603 483.489 181.006 483.489 181.461V182.635C483.489 183.056 483.191 183.371 482.753 183.371C482.332 183.371 482.017 183.056 482.017 182.635V182.057C482.017 181.742 481.859 181.496 481.579 181.356Z" fill="#010F22"/>
<rect x="968.407" y="390.407" width="321.766" height="321.766" fill="#FFE5F9"/>
<rect x="968.407" y="390.407" width="321.766" height="321.766" stroke="#EEEEEE" stroke-width="3.1858"/>
<path d="M984.336 406.336V696.243H1274.24V406.336H984.336ZM1109.91 466.328L1080.97 450.737H1225.93L1254.86 466.328H1109.91Z" stroke="#E8FE56" stroke-width="3.1858" stroke-linejoin="round"/>
<path d="M984.336 406.336L1080.97 450.737L1109.91 466.328L984.336 696.243V406.336Z" stroke="#E8FE56" stroke-width="3.1858" stroke-linejoin="round"/>
<rect x="-160.593" y="231.407" width="321.766" height="321.766" fill="white"/>
<rect x="-160.593" y="231.407" width="321.766" height="321.766" stroke="#EEEEEE" stroke-width="3.1858"/>
<path d="M-144.664 247.336V537.243H145.243V247.336H-144.664ZM-107.148 464.204V392.289H122.828L37.0745 464.204H-107.148Z" stroke="#90DCFF" stroke-width="3.1858" stroke-linejoin="round"/>
<path d="M145.245 247.336V537.243L37.0762 464.204L122.83 392.289L145.245 247.336Z" stroke="#90DCFF" stroke-width="3.1858" stroke-linejoin="round"/>
</g>
<defs>
<clipPath id="clip0_1883_961">
<rect width="1200" height="630" fill="white"/>
</clipPath>
</defs>
</svg>
