<svg width="594" height="560" viewBox="0 0 594 560" fill="none" xmlns="http://www.w3.org/2000/svg">
<rect x="1.5" y="357" width="202" height="202" fill="white"/>
<rect x="1.5" y="357" width="202" height="202" stroke="#EEEEEE" stroke-width="2"/>
<path d="M11.5 367V549H193.5V367H11.5ZM35.052 503.147V458H179.428L125.593 503.147H35.052Z" stroke="#90DCFF" stroke-width="2" stroke-linejoin="round"/>
<path d="M11.5 367L35.052 458V503.147L11.5 549V367Z" stroke="#90DCFF" stroke-width="2" stroke-linejoin="round"/>
<path d="M193.5 367V549L125.594 503.147L179.429 458L193.5 367Z" stroke="#90DCFF" stroke-width="2" stroke-linejoin="round"/>
<rect x="391" y="1" width="202" height="202" fill="white"/>
<rect x="391" y="1" width="202" height="202" stroke="#EEEEEE" stroke-width="2"/>
<path d="M401 11V193H583V11H401ZM479.834 48.6623L461.667 38.8742H552.667L570.834 48.6623H479.834Z" stroke="#E8FE56" stroke-width="2" stroke-linejoin="round"/>
<path d="M401 11L461.667 38.8742L479.834 48.6623L401 193V11Z" stroke="#E8FE56" stroke-width="2" stroke-linejoin="round"/>
<path d="M583 11V193L570.833 48.6623L552.667 38.8742L583 11Z" stroke="#E8FE56" stroke-width="2" stroke-linejoin="round"/>
<rect x="42.5" y="25.5" width="507" height="507" fill="#EEEEEE"/>
<rect x="42.5" y="25.5" width="507" height="507" stroke="#DADADA"/>
<rect width="500" height="500" transform="translate(46 29)" fill="white"/>
<path d="M356.137 205.967H226.428V353.011H356.137V205.967Z" stroke="#010F22" stroke-width="5" stroke-linecap="round" stroke-linejoin="round"/>
<path d="M424.379 117.799H136.244V441.178H424.379V117.799Z" stroke="#90DCFF" stroke-width="5" stroke-linecap="round" stroke-linejoin="round"/>
<path d="M455.253 53.543L90.9521 99.6011L90.9525 464.358L455.253 505.433V53.543Z" stroke="#010F22" stroke-width="5" stroke-linecap="round" stroke-linejoin="round"/>
<path d="M372.575 179.677L186.988 163.268V399.075L372.575 379.3V179.677Z" stroke="#90DCFF" stroke-width="5" stroke-linecap="round" stroke-linejoin="round"/>
<path d="M455.253 53.543L500.801 117.798V441.178L455.253 505.433" stroke="#010F22" stroke-width="5" stroke-linecap="round" stroke-linejoin="round"/>
<path d="M186.988 399.075L209.99 379.3H372.575V179.677H209.99L186.988 163.268V399.075Z" stroke="#90DCFF" stroke-width="5" stroke-linecap="round" stroke-linejoin="round"/>
<path d="M186.988 399.075L209.99 379.3L226.428 353.011L372.575 379.3L356.137 353.011V205.967L372.575 179.677L226.428 205.967L209.99 179.677L186.988 163.268V399.075Z" stroke="#FE01AC" stroke-width="5" stroke-linecap="round" stroke-linejoin="round"/>
<path d="M136.244 117.799V441.178" stroke="#010F22" stroke-width="5" stroke-linecap="round" stroke-linejoin="round"/>
<path d="M90.9525 464.358L136.244 441.178L455.253 505.433L424.379 441.178V117.798L455.253 53.543L136.244 117.798L90.9521 99.6011L90.9525 464.358Z" stroke="#90DCFF" stroke-width="5" stroke-linecap="round" stroke-linejoin="round"/>
<path d="M302.099 332.197C314.303 332.197 324.197 322.303 324.197 310.099C324.197 297.894 314.303 288 302.099 288C289.894 288 280 297.894 280 310.099C280 322.303 289.894 332.197 302.099 332.197Z" stroke="#010F22" stroke-width="5" stroke-linecap="round" stroke-linejoin="round"/>
<rect x="42.5" y="6.5" width="122" height="19" fill="#EEEEEE"/>
<rect x="42.5" y="6.5" width="122" height="19" stroke="#DADADA"/>
<circle cx="49" cy="16" r="3" fill="#DADADA"/>
<path d="M67.005 18.098H67.687C67.94 18.098 68.127 18.285 68.127 18.549C68.127 18.813 67.94 19 67.687 19H63.232C62.979 19 62.792 18.813 62.792 18.549C62.792 18.285 62.979 18.098 63.232 18.098H65.267C65.509 18.098 65.652 17.955 65.652 17.713V12.521C65.652 12.279 65.509 12.136 65.267 12.136H64.706C64.464 12.136 64.321 12.279 64.321 12.521V13.346C64.321 13.632 64.134 13.83 63.848 13.83C63.562 13.83 63.364 13.632 63.364 13.346V11.685C63.364 11.443 63.507 11.3 63.749 11.3H66.158C66.444 11.3 66.62 11.476 66.62 11.762V17.713C66.62 17.955 66.763 18.098 67.005 18.098ZM70.7191 14.743H74.3931C74.6461 14.743 74.8331 14.93 74.8331 15.183C74.8331 15.436 74.6461 15.623 74.3931 15.623H70.7191C70.4661 15.623 70.2791 15.436 70.2791 15.183C70.2791 14.93 70.4661 14.743 70.7191 14.743ZM77.9863 15.623V17.57C77.9863 17.812 78.1293 17.977 78.3603 18.021C79.5813 18.208 80.7473 18.175 81.9463 17.955C82.1883 17.9 82.3863 18.043 82.4193 18.285C82.4523 18.538 82.2983 18.747 82.0673 18.802C80.5713 19.088 78.9103 19.066 77.4253 18.736C77.1943 18.681 77.0513 18.505 77.0513 18.263V15.37C77.0513 15.128 77.1503 14.886 77.3153 14.71C78.2063 13.863 79.6913 13.258 81.2863 12.961C81.5393 12.917 81.7373 13.06 81.7813 13.313C81.8143 13.566 81.6603 13.775 81.4183 13.819C80.2193 14.061 79.0863 14.468 78.2943 15.007C78.0963 15.15 77.9863 15.381 77.9863 15.623ZM87.4754 18.164H88.8284C89.0704 18.164 89.2464 18.34 89.2464 18.582C89.2464 18.824 89.0704 19 88.8284 19H84.4174C84.1754 19 83.9994 18.824 83.9994 18.582C83.9994 18.34 84.1754 18.164 84.4174 18.164H85.7704C86.0124 18.164 86.1554 18.021 86.1554 17.779V12.521C86.1554 12.279 86.0124 12.136 85.7704 12.136H84.4174C84.1754 12.136 83.9994 11.96 83.9994 11.718C83.9994 11.476 84.1754 11.3 84.4174 11.3H86.7054C86.9474 11.3 87.0904 11.443 87.0904 11.685V17.779C87.0904 18.021 87.2334 18.164 87.4754 18.164ZM92.8505 10.948C92.8725 10.739 93.0045 10.607 93.2135 10.585C93.5215 10.563 93.8075 10.563 94.1265 10.585C94.3245 10.607 94.4675 10.739 94.4895 10.948C94.5115 11.256 94.5115 11.542 94.4895 11.861C94.4675 12.059 94.3245 12.202 94.1265 12.213C93.8075 12.246 93.5215 12.246 93.2135 12.213C93.0045 12.202 92.8725 12.059 92.8505 11.861C92.8285 11.542 92.8285 11.256 92.8505 10.948ZM94.5115 18.164H95.8645C96.1065 18.164 96.2825 18.34 96.2825 18.582C96.2825 18.824 96.1065 19 95.8645 19H91.4535C91.2115 19 91.0355 18.824 91.0355 18.582C91.0355 18.34 91.2115 18.164 91.4535 18.164H92.8065C93.0485 18.164 93.1915 18.021 93.1915 17.779V14.501C93.1915 14.259 93.0485 14.116 92.8065 14.116H91.4535C91.2115 14.116 91.0355 13.94 91.0355 13.698C91.0355 13.456 91.2115 13.28 91.4535 13.28H95.8645C96.1065 13.28 96.2825 13.456 96.2825 13.698C96.2825 13.94 96.1065 14.116 95.8645 14.116H94.5115C94.2695 14.116 94.1265 14.259 94.1265 14.501V17.779C94.1265 18.021 94.2695 18.164 94.5115 18.164ZM99.0947 15.623V17.57C99.0947 17.812 99.2377 17.977 99.4687 18.021C100.69 18.208 101.856 18.175 103.055 17.955C103.297 17.9 103.495 18.043 103.528 18.285C103.561 18.538 103.407 18.747 103.176 18.802C101.68 19.088 100.019 19.066 98.5337 18.736C98.3027 18.681 98.1597 18.505 98.1597 18.263V15.37C98.1597 15.128 98.2587 14.886 98.4237 14.71C99.3147 13.863 100.8 13.258 102.395 12.961C102.648 12.917 102.846 13.06 102.89 13.313C102.923 13.566 102.769 13.775 102.527 13.819C101.328 14.061 100.195 14.468 99.4027 15.007C99.2047 15.15 99.0947 15.381 99.0947 15.623ZM109.332 17.735L106.428 16.338C106.208 16.239 106.076 16.316 106.076 16.558V18.527C106.076 18.802 105.889 19 105.614 19C105.339 19 105.141 18.802 105.141 18.527V11.773C105.141 11.498 105.328 11.3 105.603 11.3C105.878 11.3 106.076 11.498 106.076 11.773V14.677C106.076 14.919 106.197 14.963 106.406 14.798L109.035 12.664C109.255 12.477 109.541 12.488 109.728 12.686C109.915 12.895 109.882 13.17 109.662 13.346L107.264 15.282C107.077 15.436 107.099 15.59 107.308 15.7L110.124 17.13C110.377 17.262 110.531 17.515 110.531 17.801V18.538C110.531 18.802 110.344 19 110.069 19C109.805 19 109.607 18.802 109.607 18.538V18.175C109.607 17.977 109.508 17.823 109.332 17.735ZM124.042 16.437H120.489C120.247 16.437 120.104 16.58 120.104 16.822V18.505C120.104 18.791 119.906 19 119.609 19C119.323 19 119.114 18.791 119.114 18.505V11.685C119.114 11.443 119.257 11.3 119.499 11.3H124.042C124.284 11.3 124.449 11.443 124.471 11.685C124.647 13.137 124.647 14.6 124.471 16.052C124.449 16.294 124.284 16.437 124.042 16.437ZM120.104 12.521V15.216C120.104 15.458 120.247 15.601 120.489 15.601H123.118C123.36 15.601 123.525 15.458 123.558 15.216C123.668 14.314 123.668 13.423 123.558 12.521C123.525 12.279 123.36 12.136 123.118 12.136H120.489C120.247 12.136 120.104 12.279 120.104 12.521ZM127.943 15.172C127.745 15.315 127.635 15.546 127.635 15.788V18.527C127.635 18.802 127.448 19 127.173 19C126.898 19 126.7 18.802 126.7 18.527V13.533C126.7 13.258 126.887 13.06 127.162 13.06C127.437 13.06 127.635 13.258 127.635 13.533V14.006C127.635 14.248 127.756 14.314 127.954 14.182C128.713 13.698 129.879 13.148 131.298 13.038C131.54 13.027 131.683 13.159 131.683 13.401V15.26C131.683 15.524 131.507 15.711 131.243 15.711C130.979 15.711 130.792 15.524 130.792 15.26V14.336C130.792 14.094 130.649 13.973 130.418 14.017C129.461 14.215 128.658 14.633 127.943 15.172ZM135.881 19C134.396 19 133.153 17.746 133.153 16.47V15.414C133.153 14.138 134.451 12.95 135.881 12.95C137.311 12.95 138.609 14.138 138.609 15.414V16.47C138.609 17.746 137.366 19 135.881 19ZM135.881 18.164C136.805 18.164 137.619 17.416 137.619 16.569V15.26C137.619 14.468 136.805 13.786 135.881 13.786C134.957 13.786 134.143 14.468 134.143 15.26V16.569C134.143 17.416 134.957 18.164 135.881 18.164ZM142.917 19C141.432 19 140.189 17.746 140.189 16.47V15.414C140.189 14.138 141.487 12.95 142.917 12.95C144.347 12.95 145.645 14.138 145.645 15.414V16.47C145.645 17.746 144.402 19 142.917 19ZM142.917 18.164C143.841 18.164 144.655 17.416 144.655 16.569V15.26C144.655 14.468 143.841 13.786 142.917 13.786C141.993 13.786 141.179 14.468 141.179 15.26V16.569C141.179 17.416 141.993 18.164 142.917 18.164ZM152.297 14.567H150.724C150.482 14.567 150.339 14.71 150.339 14.952V18.505C150.339 18.791 150.141 19 149.844 19C149.558 19 149.349 18.791 149.349 18.505V14.952C149.349 14.71 149.206 14.567 148.964 14.567H147.501C147.259 14.567 147.083 14.391 147.083 14.138C147.083 13.885 147.259 13.709 147.501 13.709H148.964C149.206 13.709 149.349 13.566 149.349 13.324V12.048C149.349 11.608 149.602 11.311 150.031 11.245L152.209 10.915C152.462 10.882 152.671 11.036 152.704 11.289C152.748 11.542 152.583 11.762 152.33 11.795L150.724 12.059C150.482 12.092 150.339 12.257 150.339 12.499V13.324C150.339 13.566 150.482 13.709 150.724 13.709H152.297C152.539 13.709 152.715 13.885 152.715 14.138C152.715 14.391 152.539 14.567 152.297 14.567ZM159.762 17.119L159.63 18.395C159.597 18.637 159.443 18.802 159.201 18.835C157.815 19.033 156.352 19.055 154.955 18.846C154.702 18.802 154.537 18.582 154.57 18.329C154.614 18.076 154.823 17.922 155.043 17.955C156.099 18.12 157.199 18.175 158.288 18.032C158.53 17.999 158.695 17.834 158.739 17.592L158.728 17.636C158.772 17.394 158.662 17.196 158.431 17.108L154.713 15.623C154.482 15.535 154.35 15.337 154.35 15.095V13.61C154.35 13.368 154.493 13.203 154.735 13.181C156.275 12.994 157.815 12.994 159.355 13.181C159.597 13.203 159.74 13.368 159.74 13.61V14.853C159.74 15.128 159.553 15.315 159.289 15.315C159.025 15.315 158.827 15.128 158.827 14.853V14.402C158.827 14.16 158.684 13.995 158.453 13.951C157.551 13.819 156.605 13.819 155.67 13.951C155.428 13.995 155.285 14.16 155.285 14.402V14.567C155.285 14.809 155.417 15.007 155.648 15.095L159.443 16.591C159.674 16.679 159.795 16.877 159.762 17.119Z" fill="#010F22"/>
</svg>
