<svg width="1070" height="560" viewBox="0 0 1070 560" fill="none" xmlns="http://www.w3.org/2000/svg">
<rect width="1070" height="556" transform="translate(0 2)" fill="white"/>
<rect x="457" y="357" width="202" height="202" fill="white"/>
<rect x="457" y="357" width="202" height="202" stroke="#EEEEEE" stroke-width="2"/>
<path d="M467 367V549H649V367H467ZM490.552 503.147V458H634.928L581.093 503.147H490.552Z" stroke="#90DCFF" stroke-width="2" stroke-linejoin="round"/>
<path d="M467 367L490.552 458V503.147L467 549V367Z" stroke="#90DCFF" stroke-width="2" stroke-linejoin="round"/>
<path d="M649 367V549L581.094 503.147L634.929 458L649 367Z" stroke="#90DCFF" stroke-width="2" stroke-linejoin="round"/>
<rect x="846.5" y="1" width="202" height="202" fill="white"/>
<rect x="846.5" y="1" width="202" height="202" stroke="#EEEEEE" stroke-width="2"/>
<path d="M856.5 11V193H1038.5V11H856.5ZM935.334 48.6623L917.167 38.8742H1008.17L1026.33 48.6623H935.334Z" stroke="#E8FE56" stroke-width="2" stroke-linejoin="round"/>
<path d="M856.5 11L917.167 38.8742L935.334 48.6623L856.5 193V11Z" stroke="#E8FE56" stroke-width="2" stroke-linejoin="round"/>
<path d="M1038.5 11V193L1026.33 48.6623L1008.17 38.8742L1038.5 11Z" stroke="#E8FE56" stroke-width="2" stroke-linejoin="round"/>
<rect x="498" y="25.5" width="507" height="507" fill="#EEEEEE"/>
<rect x="498" y="25.5" width="507" height="507" stroke="#DADADA"/>
<rect width="500" height="500" transform="translate(501.5 29)" fill="white"/>
<path d="M811.637 205.967H681.928V353.011H811.637V205.967Z" stroke="#010F22" stroke-width="5" stroke-linecap="round" stroke-linejoin="round"/>
<path d="M879.879 117.799H591.744V441.178H879.879V117.799Z" stroke="#90DCFF" stroke-width="5" stroke-linecap="round" stroke-linejoin="round"/>
<path d="M910.753 53.543L546.452 99.6011L546.452 464.358L910.753 505.433V53.543Z" stroke="#010F22" stroke-width="5" stroke-linecap="round" stroke-linejoin="round"/>
<path d="M828.075 179.677L642.488 163.268V399.075L828.075 379.3V179.677Z" stroke="#90DCFF" stroke-width="5" stroke-linecap="round" stroke-linejoin="round"/>
<path d="M910.753 53.543L956.301 117.798V441.178L910.753 505.433" stroke="#010F22" stroke-width="5" stroke-linecap="round" stroke-linejoin="round"/>
<path d="M642.488 399.075L665.49 379.3H828.075V179.677H665.49L642.488 163.268V399.075Z" stroke="#90DCFF" stroke-width="5" stroke-linecap="round" stroke-linejoin="round"/>
<path d="M642.488 399.075L665.49 379.3L681.928 353.011L828.075 379.3L811.637 353.011V205.967L828.075 179.677L681.928 205.967L665.49 179.677L642.488 163.268V399.075Z" stroke="#FE01AC" stroke-width="5" stroke-linecap="round" stroke-linejoin="round"/>
<path d="M591.744 117.799V441.178" stroke="#010F22" stroke-width="5" stroke-linecap="round" stroke-linejoin="round"/>
<path d="M546.452 464.358L591.744 441.178L910.753 505.433L879.879 441.178V117.798L910.753 53.543L591.744 117.798L546.452 99.6011L546.452 464.358Z" stroke="#90DCFF" stroke-width="5" stroke-linecap="round" stroke-linejoin="round"/>
<path d="M757.599 332.197C769.803 332.197 779.697 322.303 779.697 310.099C779.697 297.894 769.803 288 757.599 288C745.394 288 735.5 297.894 735.5 310.099C735.5 322.303 745.394 332.197 757.599 332.197Z" stroke="#010F22" stroke-width="5" stroke-linecap="round" stroke-linejoin="round"/>
<rect x="498" y="6.5" width="122" height="19" fill="#EEEEEE"/>
<rect x="498" y="6.5" width="122" height="19" stroke="#DADADA"/>
<circle cx="504.5" cy="16" r="3" fill="#DADADA"/>
<path d="M522.505 18.098H523.187C523.44 18.098 523.627 18.285 523.627 18.549C523.627 18.813 523.44 19 523.187 19H518.732C518.479 19 518.292 18.813 518.292 18.549C518.292 18.285 518.479 18.098 518.732 18.098H520.767C521.009 18.098 521.152 17.955 521.152 17.713V12.521C521.152 12.279 521.009 12.136 520.767 12.136H520.206C519.964 12.136 519.821 12.279 519.821 12.521V13.346C519.821 13.632 519.634 13.83 519.348 13.83C519.062 13.83 518.864 13.632 518.864 13.346V11.685C518.864 11.443 519.007 11.3 519.249 11.3H521.658C521.944 11.3 522.12 11.476 522.12 11.762V17.713C522.12 17.955 522.263 18.098 522.505 18.098ZM526.219 14.743H529.893C530.146 14.743 530.333 14.93 530.333 15.183C530.333 15.436 530.146 15.623 529.893 15.623H526.219C525.966 15.623 525.779 15.436 525.779 15.183C525.779 14.93 525.966 14.743 526.219 14.743ZM533.486 15.623V17.57C533.486 17.812 533.629 17.977 533.86 18.021C535.081 18.208 536.247 18.175 537.446 17.955C537.688 17.9 537.886 18.043 537.919 18.285C537.952 18.538 537.798 18.747 537.567 18.802C536.071 19.088 534.41 19.066 532.925 18.736C532.694 18.681 532.551 18.505 532.551 18.263V15.37C532.551 15.128 532.65 14.886 532.815 14.71C533.706 13.863 535.191 13.258 536.786 12.961C537.039 12.917 537.237 13.06 537.281 13.313C537.314 13.566 537.16 13.775 536.918 13.819C535.719 14.061 534.586 14.468 533.794 15.007C533.596 15.15 533.486 15.381 533.486 15.623ZM542.975 18.164H544.328C544.57 18.164 544.746 18.34 544.746 18.582C544.746 18.824 544.57 19 544.328 19H539.917C539.675 19 539.499 18.824 539.499 18.582C539.499 18.34 539.675 18.164 539.917 18.164H541.27C541.512 18.164 541.655 18.021 541.655 17.779V12.521C541.655 12.279 541.512 12.136 541.27 12.136H539.917C539.675 12.136 539.499 11.96 539.499 11.718C539.499 11.476 539.675 11.3 539.917 11.3H542.205C542.447 11.3 542.59 11.443 542.59 11.685V17.779C542.59 18.021 542.733 18.164 542.975 18.164ZM548.351 10.948C548.373 10.739 548.505 10.607 548.714 10.585C549.022 10.563 549.308 10.563 549.627 10.585C549.825 10.607 549.968 10.739 549.99 10.948C550.012 11.256 550.012 11.542 549.99 11.861C549.968 12.059 549.825 12.202 549.627 12.213C549.308 12.246 549.022 12.246 548.714 12.213C548.505 12.202 548.373 12.059 548.351 11.861C548.329 11.542 548.329 11.256 548.351 10.948ZM550.012 18.164H551.365C551.607 18.164 551.783 18.34 551.783 18.582C551.783 18.824 551.607 19 551.365 19H546.954C546.712 19 546.536 18.824 546.536 18.582C546.536 18.34 546.712 18.164 546.954 18.164H548.307C548.549 18.164 548.692 18.021 548.692 17.779V14.501C548.692 14.259 548.549 14.116 548.307 14.116H546.954C546.712 14.116 546.536 13.94 546.536 13.698C546.536 13.456 546.712 13.28 546.954 13.28H551.365C551.607 13.28 551.783 13.456 551.783 13.698C551.783 13.94 551.607 14.116 551.365 14.116H550.012C549.77 14.116 549.627 14.259 549.627 14.501V17.779C549.627 18.021 549.77 18.164 550.012 18.164ZM554.595 15.623V17.57C554.595 17.812 554.738 17.977 554.969 18.021C556.19 18.208 557.356 18.175 558.555 17.955C558.797 17.9 558.995 18.043 559.028 18.285C559.061 18.538 558.907 18.747 558.676 18.802C557.18 19.088 555.519 19.066 554.034 18.736C553.803 18.681 553.66 18.505 553.66 18.263V15.37C553.66 15.128 553.759 14.886 553.924 14.71C554.815 13.863 556.3 13.258 557.895 12.961C558.148 12.917 558.346 13.06 558.39 13.313C558.423 13.566 558.269 13.775 558.027 13.819C556.828 14.061 555.695 14.468 554.903 15.007C554.705 15.15 554.595 15.381 554.595 15.623ZM564.832 17.735L561.928 16.338C561.708 16.239 561.576 16.316 561.576 16.558V18.527C561.576 18.802 561.389 19 561.114 19C560.839 19 560.641 18.802 560.641 18.527V11.773C560.641 11.498 560.828 11.3 561.103 11.3C561.378 11.3 561.576 11.498 561.576 11.773V14.677C561.576 14.919 561.697 14.963 561.906 14.798L564.535 12.664C564.755 12.477 565.041 12.488 565.228 12.686C565.415 12.895 565.382 13.17 565.162 13.346L562.764 15.282C562.577 15.436 562.599 15.59 562.808 15.7L565.624 17.13C565.877 17.262 566.031 17.515 566.031 17.801V18.538C566.031 18.802 565.844 19 565.569 19C565.305 19 565.107 18.802 565.107 18.538V18.175C565.107 17.977 565.008 17.823 564.832 17.735ZM579.542 16.437H575.989C575.747 16.437 575.604 16.58 575.604 16.822V18.505C575.604 18.791 575.406 19 575.109 19C574.823 19 574.614 18.791 574.614 18.505V11.685C574.614 11.443 574.757 11.3 574.999 11.3H579.542C579.784 11.3 579.949 11.443 579.971 11.685C580.147 13.137 580.147 14.6 579.971 16.052C579.949 16.294 579.784 16.437 579.542 16.437ZM575.604 12.521V15.216C575.604 15.458 575.747 15.601 575.989 15.601H578.618C578.86 15.601 579.025 15.458 579.058 15.216C579.168 14.314 579.168 13.423 579.058 12.521C579.025 12.279 578.86 12.136 578.618 12.136H575.989C575.747 12.136 575.604 12.279 575.604 12.521ZM583.443 15.172C583.245 15.315 583.135 15.546 583.135 15.788V18.527C583.135 18.802 582.948 19 582.673 19C582.398 19 582.2 18.802 582.2 18.527V13.533C582.2 13.258 582.387 13.06 582.662 13.06C582.937 13.06 583.135 13.258 583.135 13.533V14.006C583.135 14.248 583.256 14.314 583.454 14.182C584.213 13.698 585.379 13.148 586.798 13.038C587.04 13.027 587.183 13.159 587.183 13.401V15.26C587.183 15.524 587.007 15.711 586.743 15.711C586.479 15.711 586.292 15.524 586.292 15.26V14.336C586.292 14.094 586.149 13.973 585.918 14.017C584.961 14.215 584.158 14.633 583.443 15.172ZM591.381 19C589.896 19 588.653 17.746 588.653 16.47V15.414C588.653 14.138 589.951 12.95 591.381 12.95C592.811 12.95 594.109 14.138 594.109 15.414V16.47C594.109 17.746 592.866 19 591.381 19ZM591.381 18.164C592.305 18.164 593.119 17.416 593.119 16.569V15.26C593.119 14.468 592.305 13.786 591.381 13.786C590.457 13.786 589.643 14.468 589.643 15.26V16.569C589.643 17.416 590.457 18.164 591.381 18.164ZM598.417 19C596.932 19 595.689 17.746 595.689 16.47V15.414C595.689 14.138 596.987 12.95 598.417 12.95C599.847 12.95 601.145 14.138 601.145 15.414V16.47C601.145 17.746 599.902 19 598.417 19ZM598.417 18.164C599.341 18.164 600.155 17.416 600.155 16.569V15.26C600.155 14.468 599.341 13.786 598.417 13.786C597.493 13.786 596.679 14.468 596.679 15.26V16.569C596.679 17.416 597.493 18.164 598.417 18.164ZM607.797 14.567H606.224C605.982 14.567 605.839 14.71 605.839 14.952V18.505C605.839 18.791 605.641 19 605.344 19C605.058 19 604.849 18.791 604.849 18.505V14.952C604.849 14.71 604.706 14.567 604.464 14.567H603.001C602.759 14.567 602.583 14.391 602.583 14.138C602.583 13.885 602.759 13.709 603.001 13.709H604.464C604.706 13.709 604.849 13.566 604.849 13.324V12.048C604.849 11.608 605.102 11.311 605.531 11.245L607.709 10.915C607.962 10.882 608.171 11.036 608.204 11.289C608.248 11.542 608.083 11.762 607.83 11.795L606.224 12.059C605.982 12.092 605.839 12.257 605.839 12.499V13.324C605.839 13.566 605.982 13.709 606.224 13.709H607.797C608.039 13.709 608.215 13.885 608.215 14.138C608.215 14.391 608.039 14.567 607.797 14.567ZM615.262 17.119L615.13 18.395C615.097 18.637 614.943 18.802 614.701 18.835C613.315 19.033 611.852 19.055 610.455 18.846C610.202 18.802 610.037 18.582 610.07 18.329C610.114 18.076 610.323 17.922 610.543 17.955C611.599 18.12 612.699 18.175 613.788 18.032C614.03 17.999 614.195 17.834 614.239 17.592L614.228 17.636C614.272 17.394 614.162 17.196 613.931 17.108L610.213 15.623C609.982 15.535 609.85 15.337 609.85 15.095V13.61C609.85 13.368 609.993 13.203 610.235 13.181C611.775 12.994 613.315 12.994 614.855 13.181C615.097 13.203 615.24 13.368 615.24 13.61V14.853C615.24 15.128 615.053 15.315 614.789 15.315C614.525 15.315 614.327 15.128 614.327 14.853V14.402C614.327 14.16 614.184 13.995 613.953 13.951C613.051 13.819 612.105 13.819 611.17 13.951C610.928 13.995 610.785 14.16 610.785 14.402V14.567C610.785 14.809 610.917 15.007 611.148 15.095L614.943 16.591C615.174 16.679 615.295 16.877 615.262 17.119Z" fill="#010F22"/>
</svg>
